<svg xmlns="http://www.w3.org/2000/svg" viewBox="0 0 832.1 711.08"><defs><style>.cls-1{fill:#1d1d1b;}</style></defs><g id="Lager_2" data-name="Lager 2"><g id="Lager_1-2" data-name="Lager 1"><path d="M821.82,270.63A355.55,355.55,0,1,0,179.66,551L6.41,680.79A16,16,0,1,0,25.59,706.4L198.45,576.92a354.16,354.16,0,0,0,222,129.63,358.75,358.75,0,0,0,56.65,4.53A355.75,355.75,0,0,0,821.82,270.63ZM796,406.62A323.65,323.65,0,0,1,477.24,679.08,328.21,328.21,0,0,1,425.48,675,323.47,323.47,0,0,1,286.82,93.56,321.07,321.07,0,0,1,475.87,32a328.43,328.43,0,0,1,51.77,4.13A323.46,323.46,0,0,1,796,406.62Z"/><path class="cls-1" d="M476.54,550.48c-85.52,0-155.1-71.41-155.1-159.19,0-35.88,24.24-92.24,72.05-167.49,34.77-54.75,69-99,70.41-100.83a16,16,0,0,1,25.29,0c1.44,1.86,35.63,46.08,70.41,100.83,47.8,75.25,72,131.61,72,167.49C631.64,479.07,562.07,550.48,476.54,550.48Zm0-391.18c-43.32,58.53-123.1,177.54-123.1,232,0,70.13,55.23,127.19,123.1,127.19s123.1-57.06,123.1-127.19C599.64,336.84,519.87,217.83,476.54,159.3Z"/><path class="cls-1" d="M470.88,482.13a64.63,64.63,0,0,1-6.7-.35A16,16,0,1,1,467.5,450c13.84,1.44,31.68-6.21,43.37-18.61,8.57-9.1,18-24.84,14.16-48.16A16,16,0,0,1,556.61,378c4.64,28.27-3.33,55-22.46,75.3C517.22,471.26,493,482.13,470.88,482.13Z"/><path class="cls-1" d="M514.64,341.22a19.15,19.15,0,1,0-19.14-19.14,19.16,19.16,0,0,0,19.14,19.14"/></g></g></svg>