<svg xmlns="http://www.w3.org/2000/svg" viewBox="0 0 832.25 711.43"><g id="Lager_2" data-name="Lager 2"><g id="Lager_1-2" data-name="Lager 1"><g id="Lager_2-2" data-name="Lager 2"><g id="Lager_1-2-2" data-name="Lager 1-2"><path d="M822,271C775.27,80.26,582.76-36.45,392,10.31s-307.42,239.26-260.67,430a355.56,355.56,0,0,0,48.49,111.06L6.61,681.14a16,16,0,0,0,18.78,25.91l.4-.3L198.65,577.27a354.17,354.17,0,0,0,222,129.63,358.38,358.38,0,0,0,56.65,4.53c196.48-.44,355.39-160.07,355-356.55A355.67,355.67,0,0,0,822,271ZM796.2,407A323.64,323.64,0,0,1,477.44,679.43a328.7,328.7,0,0,1-51.76-4.08c-176.41-28.18-296.58-194-268.4-370.44A323.72,323.72,0,0,1,476.07,32.35a328.78,328.78,0,0,1,51.77,4.13c176.41,28.19,296.56,194,268.37,370.45Z"/></g></g><path d="M479.86,305.16a50.55,50.55,0,1,1-50.56,50.55,50.55,50.55,0,0,1,50.56-50.55Zm0,6.63a43.92,43.92,0,1,0,43.92,43.92,43.92,43.92,0,0,0-43.92-43.92Z"/><path d="M479.86,407.76a52,52,0,1,1,52-52.05A52.11,52.11,0,0,1,479.86,407.76Zm0-101.1a49.05,49.05,0,1,0,49,49A49.11,49.11,0,0,0,479.86,306.66Zm0,94.47a45.42,45.42,0,1,1,45.42-45.42A45.47,45.47,0,0,1,479.86,401.13Zm0-87.84a42.42,42.42,0,1,0,42.42,42.42A42.47,42.47,0,0,0,479.86,313.29Z"/><path d="M479.86,415a59.3,59.3,0,1,1,59.29-59.3A59.36,59.36,0,0,1,479.86,415Zm0-94.48A35.18,35.18,0,1,0,515,355.71,35.22,35.22,0,0,0,479.86,320.53Z"/><path d="M479.86,416.51a60.8,60.8,0,1,1,60.79-60.8A60.87,60.87,0,0,1,479.86,416.51Zm0-118.6a57.8,57.8,0,1,0,57.79,57.8A57.87,57.87,0,0,0,479.86,297.91Zm0,94.48a36.68,36.68,0,1,1,36.68-36.68A36.72,36.72,0,0,1,479.86,392.39Zm0-70.36a33.68,33.68,0,1,0,33.68,33.68A33.72,33.72,0,0,0,479.86,322Z"/><path d="M597.25,353.93c23.72,20.27,38.66,52.77,22.12,82C603,464.89,567.92,469,538.56,459.17c-5.7,30.67-26.39,59.88-60,60.17-33.25.28-54.37-28-60.54-58.37-29.43,10.41-65,7.09-82.09-21.86-16.88-28.65-2.87-61.14,20.28-81.62-23.71-20.27-38.66-52.76-22.12-82,16.37-29,51.46-33.07,80.82-23.23,5.7-30.67,26.39-59.88,60-60.17,33.25-.28,54.36,28,60.54,58.37,29.42-10.41,65-7.09,82.09,21.86,16.88,28.65,2.87,61.14-20.28,81.61Zm-12.74.09c23.09-18.66,43.63-47.86,26.1-77.64s-53.39-26.12-81.44-14.84c-4.7-29.73-19.72-61.7-54.19-61.41-34.72.29-49.33,33.16-53.57,63.09-27.7-10.64-63.28-13.85-80.29,16.23s4.09,59.34,27.87,77.94c-23.09,18.67-43.64,47.87-26.1,77.66s53.4,26.12,81.44,14.83c4.6,29.35,19.62,61.7,54.19,61.41,34.75-.29,49.31-33.16,53.57-63.1,27.7,10.67,63.29,13.82,80.29-16.23,17.1-30.21-4.1-59.3-27.87-77.94Z"/><path d="M478.1,520.84c-15.64,0-29.82-6.28-41-18.18-9.59-10.17-16.7-24.23-20.14-39.72-15.22,5.09-31.1,6.27-44.88,3.32-16.34-3.49-29.27-12.62-37.38-26.39s-9.78-29.23-5-45.07c4-13.39,12.64-26.58,24.32-37.29-12-10.63-21-23.79-25.31-37.2-5.15-15.9-3.71-31.65,4.16-45.56s20.42-23.09,36.49-26.88c13.61-3.21,29.34-2.34,44.48,2.44,3.21-15.73,10.12-30.07,19.57-40.53,11.2-12.42,25.57-19.05,41.54-19.19,15.81-.12,30.2,6.15,41.53,18.17,9.58,10.18,16.69,24.23,20.13,39.73,15.23-5.09,31.1-6.28,44.89-3.33,16.35,3.5,29.27,12.63,37.39,26.4s9.77,29.23,5,45.07c-4,13.39-12.64,26.57-24.33,37.28,12,10.64,21,23.79,25.31,37.2,5.15,15.9,3.71,31.66-4.15,45.56s-20.42,23.09-36.5,26.89c-13.6,3.21-29.33,2.33-44.47-2.44-3.21,15.72-10.12,30.06-19.57,40.53-11.2,12.41-25.57,19.05-41.54,19.18ZM419.17,459l.35,1.69c3.17,15.61,10.18,29.8,19.73,39.94C450,512,463.58,517.93,478.58,517.83s28.71-6.42,39.33-18.19c9.42-10.44,16.23-24.91,19.17-40.75l.32-1.69,1.63.54c15.12,5.07,30.91,6.09,44.46,2.9,15.25-3.6,27.2-12.4,34.58-25.44,10.81-19.12,11.6-51.58-21.79-80.13l-4.1-3.51,4.62.77C608.45,341.87,617,328.91,621,315.76c4.51-15,2.87-29.77-4.73-42.68-11.16-18.94-38.88-35.86-80.3-21.2l-1.63.57-.34-1.69c-3.18-15.62-10.19-29.8-19.74-39.94-10.62-11.28-24-17.23-38.84-17.23h-.47c-22,.19-50.49,15.74-58.51,58.94l-.32,1.7-1.63-.55c-15.12-5.06-30.91-6.09-44.47-2.89-15.24,3.59-27.2,12.39-34.57,25.44-10.82,19.12-11.6,51.58,21.78,80.12l1.31,1.12-1.29,1.15c-11.92,10.54-20.7,23.7-24.71,37.05-4.51,15-2.87,29.77,4.73,42.68,11.16,18.93,38.89,35.85,80.3,21.2Zm58.88,53.81c-16,0-29.17-6.79-39.07-20.2-9.44-12.78-13.81-28.82-15.83-40.63-19,7.33-61.13,18.5-81.55-16.15-8.25-14-9-28.93-2.27-44.36,6.36-14.56,18.06-26.37,27.27-34-9.47-7.62-21.54-19.4-28.24-34-7.07-15.45-6.59-30.48,1.45-44.68s20.54-22.26,37.28-24.14c15.78-1.77,31.86,2.45,43.11,6.59,1.87-12,6-28.38,15.34-41.47,9.83-13.84,23.1-20.92,39.43-21.06h.48c39.59,0,51.48,41.1,54.9,60.84,19-7.32,61.15-18.47,81.55,16.15,8.24,14,9,28.92,2.27,44.35-6.36,14.57-18.06,26.37-27.27,34,15.84,12.8,46.57,43.74,26.78,78.7-8,14.13-20.53,22.25-37.27,24.14-15.81,1.78-31.88-2.44-43.11-6.59-3.16,20.11-14.58,62.2-54.76,62.54Zm-52.53-65,.29,1.87c2.86,18.19,13.72,60.43,52.7,60.14S528,466.45,530.61,448l.26-1.87,1.76.68c17.19,6.62,59.24,18.37,78.44-15.57,18.87-33.33-11.49-63.24-26.55-75.28l-.65.52L581,349.39l3.45,2.71c14.69-12.11,44.18-42.08,24.83-75C589.45,243.43,547,256,529.73,262.93l-1.74.71-.3-1.86c-2.87-18.2-13.81-60.49-52.7-60.15-39.18.33-49.48,43.33-52.09,61.8l-.26,1.86-1.76-.67c-17.21-6.61-59.29-18.31-78.46,15.57-19.3,34.1,12.8,64.52,27.5,76l1.48,1.16-1.47,1.19c-14.32,11.58-45.52,42.15-25.75,75.72,19.89,33.75,62.28,21.18,79.59,14.21Z"/><path d="M478.09,530c-18.22,0-34.69-7.26-47.67-21-8.72-9.25-15.58-21.3-19.88-34.68-13.84,3.27-27.86,3.63-40.4.95-18.91-4.05-33.9-14.66-43.35-30.69-17.87-30.35-6.53-63.86,14.21-86.87-9.76-10.35-17.08-22.31-21-34.51-6-18.4-4.26-36.69,4.9-52.87s23.72-26.89,42.35-31.28c12.36-2.92,26.24-2.84,40,.13,4.09-13.61,10.78-25.93,19.37-35.45,13-14.37,29.65-22,48.25-22.2s35.14,7.12,48.26,21c8.71,9.25,15.58,21.3,19.88,34.68,13.84-3.27,27.86-3.63,40.4-1,18.91,4,33.9,14.66,43.35,30.69,17.87,30.35,6.53,63.87-14.21,86.86,9.75,10.36,17.08,22.31,21,34.52,6,18.4,4.26,36.68-4.9,52.87s-23.73,26.89-42.35,31.28c-12.37,2.92-26.24,2.84-40-.14-4.08,13.62-10.78,25.94-19.38,35.46-13,14.37-29.64,22-48.24,22.2Zm-53.76-90.73a10.63,10.63,0,0,1,10.5,9c1.67,10.61,5.44,25.66,13.92,37.15,7.66,10.39,17.34,15.39,29.68,15.28,13.26-.11,36.49-7.27,43.13-54a10.64,10.64,0,0,1,14.36-8.42c10,3.85,24.92,8.12,39.13,6.51,12.83-1.45,22-7.35,28.07-18.06,6.52-11.51,11.92-35.14-25-64.19a10.64,10.64,0,0,1-3.5-4.56h0a10.65,10.65,0,0,1,3.45-12.43c8.32-6.76,19.31-17.46,25-30.42,5.17-11.84,4.64-22.74-1.6-33.35-6.73-11.41-24.55-27.95-68.3-10.36a10.64,10.64,0,0,1-14.47-8.21c-7.26-45.88-30.42-52.53-43.6-52.44s-36.53,7.27-43.13,53.95a10.62,10.62,0,0,1-14.34,8.44c-10-3.85-25-8.11-39.16-6.52-12.83,1.45-22,7.35-28.06,18.05s-6.42,21.78-1,33.66c6,13.17,17.54,24,26.14,30.68a10.62,10.62,0,0,1,.14,16.64c-8.35,6.76-19.51,17.55-25.23,30.65-5.16,11.83-4.64,22.74,1.6,33.34,6.74,11.43,24.57,28,68.3,10.36A10.75,10.75,0,0,1,424.33,439.24Z"/><path d="M478.09,531.47c-18.64,0-35.5-7.44-48.76-21.51A92.43,92.43,0,0,1,409.54,476a94,94,0,0,1-39.72.65c-19.33-4.14-34.65-15-44.32-31.4-18.79-31.91-5.52-65.95,13.47-87.6a94,94,0,0,1-20.43-34.08c-6.09-18.81-4.35-37.51,5-54.07s24.27-27.51,43.31-32a92.34,92.34,0,0,1,39.3-.16,93.78,93.78,0,0,1,19.29-34.71C438.71,188,455.78,180.12,474.81,180s36,7.29,49.36,21.51A92.42,92.42,0,0,1,544,235.41a94,94,0,0,1,39.72-.65c19.34,4.14,34.67,15,44.33,31.4,18.79,31.91,5.52,65.95-13.47,87.6A93.83,93.83,0,0,1,635,387.84c6.09,18.81,4.36,37.5-5,54.07s-24.27,27.51-43.32,32a92.46,92.46,0,0,1-39.29.15A93.9,93.9,0,0,1,528,508.78c-13.25,14.68-30.32,22.53-49.35,22.69Zm-66.55-59,.43,1.32c4.26,13.26,11,25.06,19.54,34.11,12.68,13.46,28.79,20.57,46.58,20.57h.58c18.16-.15,34.47-7.66,47.14-21.7,8.41-9.33,15-21.39,19.06-34.89l.39-1.33,1.36.3c13.62,2.94,27.22,3,39.32.14,18.2-4.29,32.51-14.86,41.38-30.56s10.6-33.68,4.78-51.67c-3.87-11.95-11-23.68-20.69-33.95l-.95-1,.92-1c18.77-20.8,32.31-54.08,14-85.1-9.23-15.66-23.88-26-42.37-30-12.28-2.63-26-2.3-39.75.94L542,239l-.42-1.32c-4.26-13.26-11-25.06-19.54-34.11-12.82-13.6-29.15-20.71-47.16-20.57s-34.47,7.66-47.14,21.7c-8.41,9.32-15,21.38-19.06,34.88l-.39,1.33-1.36-.29c-13.62-3-27.21-3-39.32-.14C349.36,244.73,335,255.3,326.17,271s-10.6,33.69-4.77,51.68c3.86,11.94,11,23.68,20.69,33.94l1,1-.93,1c-18.76,20.8-32.29,54.08-14,85.09,9.22,15.67,23.87,26,42.36,30,12.28,2.63,26,2.3,39.74-.94ZM478,502.16c-12.61,0-22.58-5.2-30.47-15.88-8.66-11.74-12.5-27-14.19-37.82a9.11,9.11,0,0,0-4.51-6.53,9.24,9.24,0,0,0-7.93-.52c-44.77,18-63.17.85-70.15-11-6.5-11.05-7.05-22.4-1.68-34.7,5.84-13.38,17.17-24.36,25.66-31.21a9.13,9.13,0,0,0-.12-14.3c-8.73-6.83-20.43-17.8-26.59-31.24-5.65-12.34-5.31-23.79,1-35s15.86-17.31,29.21-18.81c14.49-1.63,29.67,2.7,39.86,6.61a9.14,9.14,0,0,0,12.32-7.25c6.76-47.79,30.84-55.12,44.6-55.24S512.72,216,520.15,263a9.14,9.14,0,0,0,12.43,7c44.79-18,63.18-.84,70.15,11,6.51,11.05,7.06,22.4,1.69,34.71-5.79,13.27-17,24.17-25.4,31a9.15,9.15,0,0,0,0,14.62c37.83,29.76,32.14,54.21,25.39,66.13-6.3,11.15-15.85,17.3-29.2,18.81-14.5,1.65-29.67-2.69-39.84-6.6a9.13,9.13,0,0,0-12.33,7.23c-6.81,47.81-30.87,55.14-44.61,55.26Zm-53.68-64.42a12.16,12.16,0,0,1,12,10.26c1.64,10.44,5.33,25.25,13.63,36.49,7.37,10,16.71,14.8,28.47,14.67,12.77-.11,35.17-7.1,41.66-52.68a12.12,12.12,0,0,1,16.38-9.61c9.86,3.79,24.53,8,38.42,6.42,12.33-1.39,21.13-7.05,26.93-17.3,6.28-11.09,11.43-33.92-24.6-62.28a12.13,12.13,0,0,1,0-19.36c8.09-6.58,19-17.12,24.5-29.83,5-11.36,4.46-21.82-1.52-32-6.49-11-23.74-26.91-66.45-9.74a12.13,12.13,0,0,1-16.51-9.36c-3-19.14-12.49-51.18-41.81-51.18h-.3c-12.79.11-35.21,7.1-41.65,52.66a12.14,12.14,0,0,1-16.37,9.63c-9.87-3.79-24.55-8-38.45-6.43-12.32,1.39-21.13,7.05-26.93,17.3s-6.14,20.89-.92,32.29c5.9,12.9,17.24,23.5,25.71,30.12a12.13,12.13,0,0,1,.15,19c-8.22,6.65-19.2,17.26-24.79,30.08-5,11.36-4.47,21.82,1.52,32,6.49,11,23.76,26.93,66.44,9.73A12.19,12.19,0,0,1,424.33,437.74Z"/><circle cx="573.82" cy="177.02" r="4.17"/><path d="M573.82,182.15a5.13,5.13,0,1,1,5.12-5.13A5.13,5.13,0,0,1,573.82,182.15Zm0-8.35A3.23,3.23,0,1,0,577,177,3.23,3.23,0,0,0,573.82,173.8Z"/><path d="M573.82,190.73A13.71,13.71,0,1,1,587.52,177,13.73,13.73,0,0,1,573.82,190.73Zm0-19.07a5.36,5.36,0,1,0,5.36,5.36A5.37,5.37,0,0,0,573.82,171.66Z"/><path d="M573.82,191.69A14.67,14.67,0,1,1,588.48,177,14.69,14.69,0,0,1,573.82,191.69Zm0-27.42A12.76,12.76,0,1,0,586.57,177,12.77,12.77,0,0,0,573.82,164.27Zm0,19.07a6.32,6.32,0,1,1,6.31-6.32A6.33,6.33,0,0,1,573.82,183.34Zm0-10.72a4.41,4.41,0,1,0,4.4,4.4A4.41,4.41,0,0,0,573.82,172.62Z"/><circle cx="680.88" cy="351.13" r="4.67"/><path d="M680.88,356.27a5.15,5.15,0,1,1,5.15-5.14A5.14,5.14,0,0,1,680.88,356.27Zm0-9.34a4.2,4.2,0,1,0,4.19,4.2A4.2,4.2,0,0,0,680.88,346.93Z"/><path d="M680.88,365.33a14.21,14.21,0,1,1,14.2-14.2A14.22,14.22,0,0,1,680.88,365.33Zm0-19.07a4.87,4.87,0,1,0,4.87,4.87A4.87,4.87,0,0,0,680.88,346.26Z"/><path d="M680.88,365.81a14.68,14.68,0,1,1,14.68-14.68A14.7,14.7,0,0,1,680.88,365.81Zm0-28.41a13.73,13.73,0,1,0,13.73,13.73A13.74,13.74,0,0,0,680.88,337.4Zm0,19.07a5.35,5.35,0,1,1,5.34-5.34A5.35,5.35,0,0,1,680.88,356.47Zm0-9.73a4.39,4.39,0,1,0,4.39,4.39A4.4,4.4,0,0,0,680.88,346.74Z"/></g></g></svg>