<svg xmlns="http://www.w3.org/2000/svg" viewBox="0 0 832.1 711.08"><defs><style>.cls-1{fill:#1d1d1b;}</style></defs><g id="Lager_2" data-name="Lager 2"><g id="Lager_1-2" data-name="Lager 1"><path class="cls-1" d="M669,397a68.16,68.16,0,0,0-90.35-29.46l-.52.27a116.64,116.64,0,0,0-39.29-88.17,73.69,73.69,0,0,0,40.49-103.76,76,76,0,0,0-44.15-37.26c-39.77-13-82.5,8.29-95.25,47.39a73.42,73.42,0,0,0,4.85,57.18,77.3,77.3,0,0,0,4.89,8.07,117.24,117.24,0,0,0-68.15,31.8c-.11-.22-.21-.45-.33-.67a55.59,55.59,0,0,0-32.28-27.25c-29.1-9.49-60.38,6.1-69.73,34.77s6.71,59.73,35.82,69.22a56.14,56.14,0,0,0,17.5,2.81,55.23,55.23,0,0,0,13.65-1.74,116.47,116.47,0,0,0,25,78.66,54.45,54.45,0,0,0-38.48,35.78c-9.36,28.68,6.71,59.74,35.82,69.23h0a56.18,56.18,0,0,0,17.4,2.78c23.26,0,44.85-14.59,52.34-37.58a53.65,53.65,0,0,0,1.38-28.46A115.23,115.23,0,0,0,462,482.83a116.66,116.66,0,0,0,83.5-35.42,68.35,68.35,0,0,0,4.06,9.53A67.51,67.51,0,0,0,588.72,490a68.68,68.68,0,0,0,21.26,3.4,67.32,67.32,0,0,0,29.91-7A65.55,65.55,0,0,0,669,397ZM470.38,196c7.28-22.32,31.91-34.38,54.91-26.88A44.22,44.22,0,0,1,551,190.71a41.68,41.68,0,0,1,2.8,32.45c-7.28,22.33-31.91,34.39-54.91,26.89a44.25,44.25,0,0,1-25.7-21.64A41.67,41.67,0,0,1,470.38,196ZM325,328.74c-12.33-4-19.2-17-15.32-28.88s17.06-18.29,29.39-14.27a23.82,23.82,0,0,1,13.83,11.63A22.12,22.12,0,0,1,343,327.5,23.74,23.74,0,0,1,325,328.74Zm82.91,170.44c-3.88,11.9-17.07,18.32-29.4,14.3s-19.2-17-15.32-28.89,17.07-18.29,29.4-14.26A23.72,23.72,0,0,1,406.36,482,22.15,22.15,0,0,1,407.86,499.18ZM436,446.68a84.06,84.06,0,1,1,106-53.86A84.16,84.16,0,0,1,436,446.68Zm206.92-8.74a33.6,33.6,0,0,1-17.23,19.79,36.14,36.14,0,0,1-47.78-15.59,33.56,33.56,0,0,1,15-45.89,35.41,35.41,0,0,1,15.74-3.68,36.54,36.54,0,0,1,11.31,1.81,35.68,35.68,0,0,1,20.74,17.46A33.5,33.5,0,0,1,642.92,437.94Z"/><circle class="cls-1" cx="514.3" cy="540.32" r="19.92"/><circle class="cls-1" cx="364.27" cy="183.06" r="19.92" transform="translate(-41.84 218.85) rotate(-31.72)"/><path d="M821.82,270.63A355.55,355.55,0,1,0,179.66,551L6.41,680.79A16,16,0,1,0,25.59,706.4L198.45,576.92a354.16,354.16,0,0,0,222,129.63,358.75,358.75,0,0,0,56.65,4.53A355.75,355.75,0,0,0,821.82,270.63ZM796,406.62A323.65,323.65,0,0,1,477.24,679.08,328.21,328.21,0,0,1,425.48,675,323.47,323.47,0,0,1,286.82,93.56,321.07,321.07,0,0,1,475.87,32a328.43,328.43,0,0,1,51.77,4.13A323.46,323.46,0,0,1,796,406.62Z"/></g></g></svg>