<svg xmlns="http://www.w3.org/2000/svg" viewBox="0 0 832.09 711.08"><g id="Lager_2" data-name="Lager 2"><g id="Lager_1-2" data-name="Lager 1"><path d="M821.82,270.63A355.48,355.48,0,0,1,477.07,711.08a358.75,358.75,0,0,1-56.65-4.53,354.16,354.16,0,0,1-222-129.63L25.59,706.4A16,16,0,1,1,6.41,680.79L179.66,551A355.47,355.47,0,1,1,821.82,270.63ZM796,406.62A323.46,323.46,0,0,0,527.64,36.13,328.43,328.43,0,0,0,475.87,32,323.53,323.53,0,0,0,214.58,545.28,321.36,321.36,0,0,0,425.48,675a328.21,328.21,0,0,0,51.76,4.13A323.62,323.62,0,0,0,796,406.62Z"/><path d="M701.51,355.49v.1a15.85,15.85,0,0,1-1.59,6.93C682.8,398,652.67,428.14,612.8,449.8c-40.08,21.78-87.2,33.29-136.27,33.29s-96.2-11.51-136.28-33.29c-39.87-21.66-70-51.84-87.12-87.28a16,16,0,0,1-1.58-6.93v-.1a16,16,0,0,1,1.58-6.93c17.12-35.43,47.25-65.61,87.12-87.28C380.33,239.5,427.45,228,476.53,228s96.19,11.51,136.27,33.29c39.87,21.67,70,51.85,87.12,87.28A15.85,15.85,0,0,1,701.51,355.49Zm-33.85.05c-18-32.32-49.72-58.52-88.89-75.28a126.74,126.74,0,0,1,0,150.56C617.94,414.06,649.68,387.86,667.66,355.54Zm-96,0a95.16,95.16,0,1,0-95.16,95.16A95.27,95.27,0,0,0,571.69,355.54Zm-222.18,0a126.29,126.29,0,0,1,24.78-75.28c-39.17,16.76-70.91,43-88.89,75.28,18,32.32,49.71,58.52,88.89,75.29A126.34,126.34,0,0,1,349.51,355.54Z"/><path d="M535.09,545.55a15.93,15.93,0,0,1-13.41,18.1,308.28,308.28,0,0,1-90.31,0,15.93,15.93,0,0,1,4.71-31.52,277.63,277.63,0,0,0,80.9,0A15.94,15.94,0,0,1,535.09,545.55Z"/><path d="M476.53,322.69a32.85,32.85,0,1,1-32.86,32.85A32.85,32.85,0,0,1,476.53,322.69Z"/></g></g></svg>