<svg xmlns="http://www.w3.org/2000/svg" viewBox="0 0 832.1 711.08"><g id="Lager_2" data-name="Lager 2"><g id="Lager_1-2" data-name="Lager 1"><path d="M821.82,270.63A355.55,355.55,0,1,0,179.66,551L6.41,680.79A16,16,0,1,0,25.59,706.4L198.45,576.92a354.16,354.16,0,0,0,222,129.63,358.75,358.75,0,0,0,56.65,4.53A355.75,355.75,0,0,0,821.82,270.63ZM796,406.62A323.65,323.65,0,0,1,477.24,679.08,328.21,328.21,0,0,1,425.48,675,323.47,323.47,0,0,1,286.82,93.56,321.07,321.07,0,0,1,475.87,32a328.43,328.43,0,0,1,51.77,4.13A323.46,323.46,0,0,1,796,406.62Z"/><path d="M370.21,508.67a76.24,76.24,0,0,1-18.74-2.34c-24.94-6.32-44.4-24.55-50.8-47.59-4.08-14.69-6.17-44.13,25.66-76.26,14.84-15,16.13-30.06,4.06-47.43C309,304.34,306.31,270,323.26,245.4c15.31-22.2,43.7-31.29,74.1-23.72,2.73.68,5.43,1.54,8.28,2.44,8.39,2.65,17.06,5.4,25.89,3.51,10.68-2.27,21.28-11.62,31.49-27.79h0c21.89-34.65,55.43-37.92,77.33-26.29a51.17,51.17,0,0,1,24.72,29.37c4.42,13.49,3.34,28.41-3.13,43.15-3.69,8.43-2.92,17.94,1.87,23.14,5.36,5.82,14.65,4.22,21.5,1.86,19.89-6.85,39.37-3.72,53.43,8.58a53.18,53.18,0,0,1,16.82,49.75c-3.46,17.2-15.39,30.38-32.71,36.16-8.78,2.92-19.83,8-22.68,15.77-2.56,6.94,1.74,15.72,4.53,20.34,15.67,25.95,12.47,57.06-7.8,75.66C578,494.65,542.57,502,499.63,470.81c-21.95-16-47.37-11.81-69.75,11.39C413.3,499.39,391.92,508.67,370.21,508.67ZM376.46,251c-11.62,0-21.22,4.36-26.86,12.54-9.19,13.34-6.49,33.73,7.06,53.22,20.91,30.07,18.14,62.22-7.6,88.2-15.16,15.32-21.4,31.36-17.56,45.19,3.34,12,14,21.62,27.83,25.13,16.72,4.23,34-1.35,47.52-15.32,17-17.69,36.81-28.16,57.13-30.3,19.16-2,38,3.26,54.47,15.24,27.32,19.87,47.26,17.59,56.81,8.82,9-8.3,9.87-22.58,2-35.53-9.95-16.47-12.49-33.5-7.17-47.94,5.81-15.8,20.14-27.6,42.59-35.08,6.41-2.14,10.27-6.21,11.46-12.11a21.27,21.27,0,0,0-6.51-19.35c-6.76-5.92-15.67-4.58-21.95-2.41-22.11,7.62-42.32,3.81-55.45-10.43-13.35-14.48-16.42-37.66-7.64-57.68,7.22-16.48.58-27.22-7.3-31.41-14.21-7.54-27.88,3.43-35.27,15.12h0C454.55,273.16,415,260.64,396,254.63c-2.37-.75-4.6-1.46-6.36-1.89A54.33,54.33,0,0,0,376.46,251Z"/><path d="M264.57,279.61c-.28,0-.57,0-.85,0a16,16,0,0,1-15.14-16.81,105.63,105.63,0,0,1,69.61-94A16,16,0,0,1,329.1,198.9a73.7,73.7,0,0,0-48.57,65.54A16,16,0,0,1,264.57,279.61Z"/><path d="M603.51,548.34a16,16,0,0,1-6.24-30.74,73.69,73.69,0,0,0,45.07-68,16,16,0,0,1,32,0,105.64,105.64,0,0,1-64.6,97.47A16,16,0,0,1,603.51,548.34Z"/></g></g></svg>