<svg xmlns="http://www.w3.org/2000/svg" viewBox="0 0 3095.33 711.08"><g data-name="Lager 2"><g data-name="Lager 1"><path d="M476.55 566.08c-37.26 0-71.54-7.77-96.52-21.88-28.91-16.33-44.83-40.69-44.83-68.61V417.8c0-86.1 63.41-156.14 141.35-156.14s141.34 70 141.34 156.14v57.79c0 27.92-15.92 52.29-44.83 68.61-24.97 14.11-59.25 21.88-96.51 21.88zm0-272.56c-60.37 0-109.48 55.75-109.48 124.28v57.79c0 16.38 9.63 30.14 28.63 40.87 20.28 11.45 49 17.76 80.85 17.76s60.57-6.31 80.84-17.76c19-10.73 28.61-24.46 28.61-40.87V417.8c0-68.53-49.09-124.28-109.45-124.28zM613.52 270.67a15.94 15.94 0 0 1-11.26-27.2l23.23-23.24A15.93 15.93 0 1 1 648 242.77L624.79 266a15.89 15.89 0 0 1-11.27 4.67zM339.66 270.67a15.89 15.89 0 0 1-11.27-4.67l-23.23-23.23a15.93 15.93 0 0 1 22.53-22.54l23.24 23.24a15.94 15.94 0 0 1-11.27 27.2zM476.59 217.79a15.93 15.93 0 0 1-15.93-15.93v-55a15.93 15.93 0 0 1 31.86 0v55a15.93 15.93 0 0 1-15.93 15.93z"/><path d="M821.82 270.63A355.55 355.55 0 1 0 179.66 551L6.41 680.79a16 16 0 1 0 19.18 25.61l172.86-129.48a354.16 354.16 0 0 0 222 129.63 358.75 358.75 0 0 0 56.65 4.53 355.75 355.75 0 0 0 344.72-440.45zM796 406.62a323.65 323.65 0 0 1-318.76 272.46 328.21 328.21 0 0 1-51.76-4.08A323.47 323.47 0 0 1 286.82 93.56 321.07 321.07 0 0 1 475.87 32a328.43 328.43 0 0 1 51.77 4.13A323.46 323.46 0 0 1 796 406.62zM1120.71 522.75c-11.32 19.34-36.14 29.93-59.87 29.93-46.72 0-86.5-35-86.5-89.07 0-54.38 39.78-88.69 86.5-88.69 23.73 0 48.55 9.85 59.87 29.2v-10.59a16.61 16.61 0 1 1 33.21 0v140.53a16.61 16.61 0 1 1-33.21 0zm-57-115.35c-30.66 0-55.48 21.9-55.48 55.85 0 33.58 24.82 56.94 55.48 56.94 30.3 0 56.58-20.81 56.58-56.94.05-36.5-29.15-55.85-56.53-55.85zM1266.7 452.66l68.3 70.81c5.84 6.94 5.84 17.16-.73 22.64-6.94 6.93-17.16 5.84-23.36 0l-74.46-80.31v68.26a16.61 16.61 0 1 1-33.22 0V300.82a16.61 16.61 0 1 1 33.22 0v137.24l55.84-56.57a16.43 16.43 0 0 1 22.63-.37 16.62 16.62 0 0 1 0 23.36zM1402.85 404.12c10.22-20.44 34.67-29.2 53.29-29.2 42.34 0 65.7 27.74 65.7 75.55v83.59a16.61 16.61 0 1 1-33.22 0v-81.4c0-28.47-14.23-45.26-37.59-45.26-24.09 0-48.18 13.51-48.18 49.64v77a16.61 16.61 0 1 1-33.22 0V393.53a16.61 16.61 0 1 1 33.22 0zM1718.2 476.39h-125.56c4 28.47 26.28 46.36 55.12 46.36 20.44 0 31.75-5.12 43.43-17.89 6.21-6.94 15.7-9.13 22.27-4.38 6.57 5.11 8 15 2.92 20.81-16.43 21.16-42 31.39-69.72 31.39-48.54 0-87.23-35.41-87.23-89.43s38.69-88.33 87.23-88.33 84.68 34.31 84.68 88.33a13.08 13.08 0 0 1-13.14 13.14zm-19.71-25.92c-4-28.47-24.45-45.62-51.83-45.62-28.1 0-50 17.15-54 45.62zM1830.62 452.66l68.26 70.81c5.84 6.94 5.84 17.16-.73 22.64-6.94 6.93-17.16 5.84-23.36 0l-74.46-80.31v68.26a16.61 16.61 0 1 1-33.22 0V300.82a16.61 16.61 0 1 1 33.22 0v137.24l55.84-56.57a16.43 16.43 0 0 1 22.63-.37 16.62 16.62 0 0 1 0 23.36zM1912.74 463.25c0-54 40.52-88.33 89.06-88.33s89.43 34.31 89.43 88.33-40.88 89.43-89.43 89.43-89.06-35.41-89.06-89.43zm145.27 0c0-34.31-25.55-55.85-56.21-55.85s-56.21 21.54-56.21 55.85c0 34.67 25.55 57.3 56.21 57.3s56.2-22.63 56.2-57.3zM2160.21 534.06a16.61 16.61 0 1 1-33.21 0V300.82a16.61 16.61 0 1 1 33.21 0zM2246.72 534.06a16.61 16.61 0 1 1-33.22 0V300.82a16.61 16.61 0 1 1 33.22 0zM2441.26 476.39H2315.7c4 28.47 26.28 46.36 55.12 46.36 20.44 0 31.75-5.12 43.43-17.89 6.21-6.94 15.7-9.13 22.27-4.38 6.57 5.11 8 15 2.92 20.81-16.43 21.16-42 31.39-69.72 31.39-48.54 0-87.23-35.41-87.23-89.43s38.69-88.33 87.23-88.33 84.68 34.31 84.68 88.33a13.08 13.08 0 0 1-13.14 13.14zm-19.71-25.92c-4-28.47-24.45-45.62-51.83-45.62-28.1 0-50 17.15-54 45.62zM2526.67 404.12c10.22-20.44 34.68-29.2 53.29-29.2 42.34 0 65.7 27.74 65.7 75.55v83.59a16.61 16.61 0 1 1-33.21 0v-81.4c0-28.47-14.24-45.26-37.6-45.26-24.09 0-48.18 13.51-48.18 49.64v77a16.61 16.61 0 1 1-33.22 0V393.53a16.61 16.61 0 1 1 33.22 0zM2709.53 507.05c13.14 0 24.09 9.86 24.09 23s-10.95 22.64-24.09 22.64c-12.77 0-23.72-9.49-23.72-22.64s10.95-23 23.72-23zM2837.64 523.47c17.16 0 29.93-9.12 29.93-22.63 0-12.41-9.85-18.61-22.63-21.53l-23.36-5.48c-28.83-7.66-46-21.9-46-48.91 0-28.1 25.19-50 59.5-50 22.26 0 43.8 8 53.65 27.74a15.66 15.66 0 0 1 1.83 7.66c0 10.95-10.59 15-15.7 15-4.74 0-8.39-2.56-12-7.3-7.67-10.22-16.43-14.24-27-14.24-16.06 0-26.65 9.49-26.65 22.27 0 11 10.59 17.15 21.54 19.71l25.18 6.2c35.41 8.76 44.17 30.3 44.17 49.64 0 31.76-30.66 51.11-66.07 51.11-26.28 0-53.29-14.6-61.32-40.89a29 29 0 0 1-.73-5.11c0-8.76 8.4-13.14 16.06-13.14 5.84 0 11.68 2.92 14.24 9.5 4.72 12.38 18.21 20.4 35.36 20.4zM3082.19 476.39h-125.56c4 28.47 26.28 46.36 55.12 46.36 20.44 0 31.75-5.12 43.43-17.89 6.21-6.94 15.7-9.13 22.27-4.38 6.57 5.11 8 15 2.92 20.81-16.43 21.16-42 31.39-69.72 31.39-48.54 0-87.23-35.41-87.23-89.43s38.69-88.33 87.23-88.33 84.68 34.31 84.68 88.33a13.08 13.08 0 0 1-13.14 13.14zm-19.71-25.92c-4-28.47-24.45-45.62-51.83-45.62-28.1 0-50 17.15-54 45.62z"/><path d="M533.42 434.49a15.94 15.94 0 0 1-15.94-15.93c0-30.1-21.15-54.6-47.15-54.6a15.93 15.93 0 0 1 0-31.86c43.57 0 79 38.79 79 86.46a15.93 15.93 0 0 1-15.91 15.93z"/></g></g></svg>