<svg xmlns="http://www.w3.org/2000/svg" viewBox="0 0 1216.53 241.34"><g data-name="Lager 2"><g data-name="Lager 1"><path d="M278.92 91.85A120.67 120.67 0 1 0 61 187L2.18 231.06a5.43 5.43 0 0 0 6.51 8.69l58.66-43.95a120.17 120.17 0 0 0 75.34 44 122.3 122.3 0 0 0 19.23 1.54 120.74 120.74 0 0 0 117-149.49zM270.15 138A109.85 109.85 0 0 1 162 230.48a111.17 111.17 0 0 1-17.57-1.41A109.78 109.78 0 0 1 97.34 31.76a109 109 0 0 1 64.17-20.9 111.06 111.06 0 0 1 17.57 1.4A109.8 109.8 0 0 1 270.15 138zM345.55 137.16c3.84-6.57 11.89-9.92 20.32-9.92 16 0 29.23 11.65 29.23 30.11s-13.5 30.22-29.36 30.22c-8.05 0-16.35-3.59-20.19-10.15v3.84a5.64 5.64 0 1 1-11.27 0V102.1a5.64 5.64 0 1 1 11.27 0zm19.33 39.39c10.4 0 18.7-7.93 18.7-19.33s-8.3-18.95-18.7-18.95c-9.3 0-19.21 6.57-19.21 18.95s8.92 19.33 19.21 19.33zM404.14 157.22c0-18.33 13.75-30 30.23-30s30.35 11.65 30.35 30-13.87 30.35-30.35 30.35-30.23-12.01-30.23-30.35zm49.31 0c0-11.64-8.67-18.95-19.08-18.95s-19.08 7.31-19.08 18.95 8.67 19.45 19.08 19.45 19.08-7.67 19.08-19.45zM503.87 138c-11.15 0-15.86 11.9-15.86 27.26v16a5.64 5.64 0 1 1-11.27 0v-47.7a5.64 5.64 0 1 1 11.27 0v7.93c3-10.16 8.55-14.25 16.1-14.25 4.22 0 11.15.87 10.16 6.94-.62 3.59-3.84 4.34-7.8 4a18.31 18.31 0 0 0-2.6-.18zM551.56 138c-11.15 0-15.86 11.9-15.86 27.26v16a5.64 5.64 0 1 1-11.27 0v-47.7a5.64 5.64 0 1 1 11.27 0v7.93c3-10.16 8.55-14.25 16.11-14.25 4.21 0 11.15.87 10.15 6.94-.61 3.59-3.84 4.34-7.8 4a18.31 18.31 0 0 0-2.6-.18zM620.19 161.68h-42.62c1.37 9.67 8.92 15.74 18.71 15.74 6.94 0 10.78-1.74 14.74-6.07 2.11-2.36 5.33-3.1 7.56-1.49a5 5 0 0 1 1 7.06c-5.58 7.19-14.25 10.65-23.66 10.65-16.48 0-29.61-12-29.61-30.35s13.13-30 29.61-30 28.74 11.65 28.74 30a4.44 4.44 0 0 1-4.47 4.46zm-6.69-8.79c-1.36-9.66-8.3-15.49-17.59-15.49-9.54 0-17 5.83-18.34 15.49zM648.06 181.26a5.64 5.64 0 1 1-11.27 0V102.1a5.64 5.64 0 1 1 11.27 0zM669.12 100c4.33 0 7.8 3.1 7.8 7.31s-3.47 7.31-7.8 7.31a7.33 7.33 0 1 1 0-14.62zm5.7 33.57a5.64 5.64 0 1 0-11.28 0v47.7a5.64 5.64 0 1 0 11.28 0zM736.51 177.42c-3.84 6.56-12.27 10.15-20.32 10.15-15.86 0-29.36-11.89-29.36-30.22s13.5-30.11 29.36-30.11c8 0 16.48 3.35 20.32 9.92v-3.6a5.64 5.64 0 1 1 11.27 0v47.7a5.64 5.64 0 1 1-11.27 0zm-19.33-39.15c-10.4 0-18.83 7.43-18.83 18.95s8.43 19.33 18.83 19.33 19.2-7.06 19.2-19.33-9.91-18.95-19.2-18.95zM787.3 153.63l23.16 24c2 2.36 2 5.83-.25 7.68a5.62 5.62 0 0 1-7.92 0L777 158.09v23.17a5.64 5.64 0 1 1-11.27 0V102.1a5.64 5.64 0 1 1 11.27 0v46.58l19-19.21a5.59 5.59 0 0 1 7.68-.12 5.65 5.65 0 0 1 0 7.93zM815.17 157.22c0-18.33 13.75-30 30.22-30s30.36 11.65 30.36 30-13.88 30.35-30.36 30.35-30.22-12.01-30.22-30.35zm49.3 0c0-11.64-8.67-18.95-19.08-18.95s-19.07 7.31-19.07 18.95 8.67 19.45 19.07 19.45 19.08-7.67 19.08-19.45zM899.16 181.26a5.64 5.64 0 1 1-11.28 0V102.1a5.64 5.64 0 1 1 11.28 0zM928.52 181.26a5.64 5.64 0 1 1-11.28 0V102.1a5.64 5.64 0 1 1 11.28 0zM994.54 161.68h-42.61c1.36 9.67 8.92 15.74 18.71 15.74 6.93 0 10.77-1.74 14.74-6.07 2.1-2.36 5.32-3.1 7.55-1.49a5 5 0 0 1 1 7.06c-5.58 7.19-14.25 10.65-23.67 10.65-16.47 0-29.6-12-29.6-30.35s13.13-30 29.6-30 28.74 11.65 28.74 30a4.43 4.43 0 0 1-4.46 4.46zm-6.69-8.79c-1.36-9.66-8.3-15.49-17.59-15.49-9.54 0-17 5.83-18.33 15.49zM1023.53 137.16c3.47-6.94 11.77-9.92 18.09-9.92 14.37 0 22.3 9.42 22.3 25.65v28.37a5.64 5.64 0 1 1-11.28 0v-27.63c0-9.66-4.83-15.36-12.76-15.36-8.17 0-16.35 4.58-16.35 16.85v26.14a5.64 5.64 0 1 1-11.27 0v-47.7a5.64 5.64 0 1 1 11.27 0zM1085.59 172.09a7.94 7.94 0 0 1 8.18 7.8c0 4.46-3.72 7.68-8.18 7.68a7.8 7.8 0 0 1-8-7.68 7.9 7.9 0 0 1 8-7.8zM1129.07 177.66c5.83 0 10.16-3.09 10.16-7.68 0-4.21-3.34-6.31-7.68-7.31l-7.93-1.85c-9.78-2.61-15.61-7.44-15.61-16.6 0-9.54 8.55-17 20.2-17 7.55 0 14.86 2.73 18.21 9.42a5.39 5.39 0 0 1 .62 2.6c0 3.72-3.6 5.08-5.33 5.08s-2.85-.87-4.09-2.48c-2.6-3.47-5.57-4.83-9.17-4.83-5.45 0-9 3.22-9 7.56 0 3.71 3.59 5.82 7.31 6.69l8.55 2.1c12 3 15 10.29 15 16.85 0 10.78-10.41 17.34-22.43 17.34-8.91 0-18.08-4.95-20.81-13.87a10 10 0 0 1-.24-1.73c0-3 2.84-4.46 5.45-4.46a5 5 0 0 1 4.83 3.22c1.56 4.23 6.14 6.95 11.96 6.95zM1212.07 161.68h-42.61c1.36 9.67 8.92 15.74 18.7 15.74 6.94 0 10.78-1.74 14.75-6.07 2.1-2.36 5.32-3.1 7.55-1.49a5 5 0 0 1 1 7.06c-5.57 7.19-14.24 10.65-23.66 10.65-16.47 0-29.61-12-29.61-30.35s13.14-30 29.61-30 28.74 11.65 28.74 30a4.43 4.43 0 0 1-4.47 4.46zm-6.69-8.79c-1.36-9.66-8.3-15.49-17.59-15.49-9.54 0-17 5.83-18.33 15.49z"/><circle cx="161.74" cy="69.17" r="6.76"/><path d="M231.54 118.5l-12.86-6.81a5.4 5.4 0 0 0-2.54-.63h-27.48q-1.05-2-2.27-4l23-10.51a5.43 5.43 0 0 0 3.17-4.94V78.89a5.43 5.43 0 1 0-10.86 0v9.28L180.08 98a5.13 5.13 0 0 0-.76.43c-5.33-5-11.38-7.68-17.58-7.68s-12.26 2.68-17.59 7.68a5.13 5.13 0 0 0-.76-.43l-21.61-9.86v-9.25a5.43 5.43 0 0 0-10.86 0v12.77a5.43 5.43 0 0 0 3.17 4.94l23 10.51q-1.22 1.94-2.27 4h-27.48a5.34 5.34 0 0 0-2.54.63l-12.87 6.76a5.43 5.43 0 0 0 5.07 9.6l11.68-6.18h22q-.31 1.22-.57 2.43l-14.77 15.42a5.43 5.43 0 0 0-1.51 3.6l-.58 19.91-6.92 5.19a5.43 5.43 0 0 0 6.52 8.69l9-6.76a5.44 5.44 0 0 0 2.17-4.19l.59-20.44 5.57-5.81a32.47 32.47 0 0 0 63.09 0l5.57 5.81.59 20.44a5.44 5.44 0 0 0 2.17 4.19l9 6.76a5.43 5.43 0 1 0 6.52-8.69l-6.92-5.19-.58-19.91a5.38 5.38 0 0 0-1.51-3.6l-14.77-15.42c-.17-.81-.35-1.62-.57-2.43h22l11.67 6.18a5.43 5.43 0 0 0 5.08-9.6zm-69.8 35.37a21.64 21.64 0 0 1-21.61-21.61c0-6.4 2.67-14.28 7-20.56s9.71-10.06 14.64-10.06 10.25 3.67 14.63 10.06 7 14.16 7 20.56a21.63 21.63 0 0 1-21.66 21.61z"/></g></g></svg>