<svg xmlns="http://www.w3.org/2000/svg" viewBox="0 0 935.55 226.96"><g data-name="Lager 2"><g data-name="Lager 1"><path d="M262.31 86.38a113.48 113.48 0 1 0-205 89.49L2.05 217.3a5.1 5.1 0 1 0 6.12 8.17l55.17-41.33a113 113 0 0 0 70.85 41.38 115 115 0 0 0 18.08 1.48 113.55 113.55 0 0 0 110-140.58zm-8.25 43.41a103.3 103.3 0 0 1-101.73 87 105 105 0 0 1-16.53-1.32A103.25 103.25 0 0 1 91.55 29.86a102.53 102.53 0 0 1 60.34-19.65 104.91 104.91 0 0 1 16.52 1.32 103.24 103.24 0 0 1 85.65 118.26zM351.65 167.08c-3.26 6.53-11.07 9.32-17 9.32-13.51 0-21-8.85-21-24.11v-26.68a5.3 5.3 0 1 1 10.6 0v26c0 9.09 4.55 14.45 12 14.45 7.69 0 15.38-4.32 15.38-15.85v-24.6a5.3 5.3 0 1 1 10.6 0v44.85a5.3 5.3 0 1 1-10.6 0zM403.38 129.8c-10.49 0-14.92 11.19-14.92 25.63v15a5.3 5.3 0 1 1-10.6 0v-44.82a5.3 5.3 0 1 1 10.6 0v7.46c2.8-9.56 8-13.4 15.15-13.4 4 0 10.48.81 9.55 6.52-.58 3.38-3.61 4.08-7.34 3.73a17.38 17.38 0 0 0-2.44-.12zM426.79 94c4.08 0 7.34 2.91 7.34 6.87s-3.26 6.87-7.34 6.87a6.89 6.89 0 1 1 0-13.74zm5.36 31.57a5.3 5.3 0 1 0-10.6 0v44.85a5.3 5.3 0 1 0 10.6 0zM458.36 129c3.26-6.53 11.07-9.32 17-9.32 13.52 0 21 8.85 21 24.11v26.68a5.3 5.3 0 1 1-10.6 0v-26c0-9.09-4.54-14.44-12-14.44-7.69 0-15.38 4.31-15.38 15.84v24.58a5.3 5.3 0 1 1-10.6 0v-44.84a5.3 5.3 0 1 1 10.6 0zM531.87 144.48l21.79 22.6c1.87 2.22 1.87 5.48-.23 7.23a5.32 5.32 0 0 1-7.46 0l-23.76-25.63v21.78a5.31 5.31 0 1 1-10.61 0V96a5.31 5.31 0 1 1 10.61 0v43.8L540 121.76a5.24 5.24 0 0 1 7.22-.11 5.3 5.3 0 0 1 0 7.45zM558.09 147.86c0-17.24 12.93-28.19 28.42-28.19s28.55 11 28.55 28.19-13 28.54-28.55 28.54-28.42-11.3-28.42-28.54zm46.36 0c0-11-8.15-17.82-17.94-17.82s-17.94 6.87-17.94 17.82 8.16 18.29 17.94 18.29 17.94-7.22 17.94-18.29zM637.07 170.46a5.3 5.3 0 1 1-10.6 0V96a5.3 5.3 0 1 1 10.6 0zM664.69 170.46a5.31 5.31 0 1 1-10.61 0V96a5.31 5.31 0 1 1 10.61 0zM726.78 152.06H686.7c1.29 9.08 8.39 14.79 17.6 14.79 6.52 0 10.13-1.63 13.86-5.71 2-2.21 5-2.91 7.11-1.4a4.73 4.73 0 0 1 .93 6.64c-5.24 6.76-13.4 10-22.25 10-15.5 0-27.85-11.3-27.85-28.54s12.35-28.19 27.85-28.19 27 11 27 28.19a4.18 4.18 0 0 1-4.17 4.22zm-6.29-8.28c-1.28-9.08-7.81-14.56-16.54-14.56-9 0-16 5.48-17.25 14.56zM754 129c3.26-6.53 11.07-9.32 17-9.32 13.51 0 21 8.85 21 24.11v26.68a5.3 5.3 0 1 1-10.6 0v-26c0-9.09-4.54-14.44-12-14.44-7.69 0-15.38 4.31-15.38 15.84v24.58a5.3 5.3 0 1 1-10.6 0v-44.84a5.3 5.3 0 1 1 10.6 0zM812.41 161.84a7.47 7.47 0 0 1 7.69 7.34c0 4.2-3.5 7.22-7.69 7.22a7.34 7.34 0 0 1-7.58-7.22 7.44 7.44 0 0 1 7.58-7.34zM853.3 167.08c5.47 0 9.55-2.91 9.55-7.22 0-4-3.14-5.94-7.22-6.87l-7.46-1.75c-9.2-2.45-14.68-7-14.68-15.61 0-9 8-16 19-16 7.11 0 14 2.56 17.13 8.85a5.09 5.09 0 0 1 .58 2.45c0 3.49-3.38 4.77-5 4.77s-2.68-.81-3.84-2.33c-2.45-3.26-5.25-4.54-8.62-4.54-5.13 0-8.51 3-8.51 7.11 0 3.49 3.38 5.47 6.87 6.29l8 2c11.3 2.8 14.1 9.67 14.1 15.84 0 10.14-9.79 16.31-21.09 16.31-8.38 0-17-4.66-19.57-13a8.93 8.93 0 0 1-.23-1.64c0-2.79 2.68-4.19 5.12-4.19a4.71 4.71 0 0 1 4.55 3c1.53 3.97 5.84 6.53 11.32 6.53zM931.35 152.06h-40.07c1.28 9.08 8.39 14.79 17.59 14.79 6.52 0 10.14-1.63 13.86-5.71 2-2.21 5-2.91 7.11-1.4a4.72 4.72 0 0 1 .93 6.64c-5.24 6.76-13.4 10-22.25 10-15.49 0-27.84-11.3-27.84-28.54s12.35-28.19 27.84-28.19 27 11 27 28.19a4.18 4.18 0 0 1-4.17 4.22zm-6.29-8.28c-1.28-9.08-7.8-14.56-16.54-14.56-9 0-16 5.48-17.24 14.56z"/><path d="M152.1 175.7c-27.29 0-49.5-22.79-49.5-50.81 0-11.45 7.74-29.44 23-53.46 11.1-17.47 22-31.59 22.48-32.18a5.1 5.1 0 0 1 8.07 0c.46.59 11.37 14.71 22.47 32.18 15.26 24 23 42 23 53.46-.01 28.02-22.22 50.81-49.52 50.81zm0-124.85c-13.82 18.68-39.29 56.66-39.29 74 0 22.39 17.63 40.6 39.29 40.6s39.3-18.21 39.3-40.6c0-17.34-25.47-55.32-39.3-74z"/><path d="M150.3 153.89c-.72 0-1.44 0-2.14-.11a5.11 5.11 0 1 1 1.06-10.16c4.42.46 10.11-2 13.84-5.94a17.46 17.46 0 0 0 4.52-15.37 5.11 5.11 0 1 1 10.08-1.66 27.69 27.69 0 0 1-7.17 24c-5.4 5.77-13.12 9.24-20.19 9.24zM164.26 108.91a6.11 6.11 0 1 0-6.11-6.11 6.11 6.11 0 0 0 6.11 6.11"/></g></g></svg>