<svg xmlns="http://www.w3.org/2000/svg" viewBox="0 0 1428.33 296.74"><g data-name="Lager 2"><g data-name="Lager 1"><path d="M279.19 165.68a28.43 28.43 0 0 0-37.7-12.29l-.22.11a48.69 48.69 0 0 0-16.39-36.79 30.75 30.75 0 0 0 16.89-43.3 31.71 31.71 0 0 0-18.42-15.55c-16.6-5.41-34.43 3.46-39.75 19.77a30.66 30.66 0 0 0 2 23.87 31.62 31.62 0 0 0 2 3.36 48.89 48.89 0 0 0-28.44 13.28c0-.1-.09-.19-.13-.29a23 23 0 1 0-27.63 32 23.62 23.62 0 0 0 7.31 1.17 23.23 23.23 0 0 0 5.69-.72 48.6 48.6 0 0 0 10.44 32.82 22.76 22.76 0 0 0-16.06 14.93A23 23 0 0 0 153.79 227a23.35 23.35 0 0 0 7.27 1.16 22.91 22.91 0 0 0 21.84-15.68 22.35 22.35 0 0 0 .57-11.88 47.65 47.65 0 0 0 9.32.92 48.68 48.68 0 0 0 34.84-14.78 28.67 28.67 0 0 0 1.69 4 28.2 28.2 0 0 0 16.36 13.81 28.56 28.56 0 0 0 8.87 1.42A28 28 0 0 0 267 203a27.36 27.36 0 0 0 12.16-37.3zm-82.9-83.9c3-9.32 13.32-14.35 22.92-11.22a18.45 18.45 0 0 1 10.72 9 17.41 17.41 0 0 1 1.17 13.55c-3 9.31-13.32 14.35-22.91 11.22a18.46 18.46 0 0 1-10.73-9 17.39 17.39 0 0 1-1.17-13.55zm-60.69 55.41a9.48 9.48 0 1 1 5.88-18 10 10 0 0 1 5.77 4.85 9.24 9.24 0 0 1-4.13 12.64 9.94 9.94 0 0 1-7.52.51zm34.6 71.12a9.82 9.82 0 1 1-6.39-12 10 10 0 0 1 5.77 4.85 9.21 9.21 0 0 1 .62 7.15zm11.74-21.91a35.08 35.08 0 1 1 44.23-22.48 35.13 35.13 0 0 1-44.23 22.48zm86.36-3.65a14 14 0 0 1-7.19 8.26 15.1 15.1 0 0 1-20-6.5 14 14 0 0 1 6.25-19.15 14.78 14.78 0 0 1 6.57-1.54 15.08 15.08 0 0 1 4.72.76 14.88 14.88 0 0 1 8.65 7.28 14 14 0 0 1 1 10.89z"/><circle cx="214.62" cy="225.48" r="8.31"/><circle cx="152.01" cy="76.39" r="8.31" transform="rotate(-31.72 152.004 76.393)"/><path d="M343 112.93a148.37 148.37 0 1 0-268 117L2.67 284.1a6.68 6.68 0 0 0 8 10.69l72.13-54a147.92 147.92 0 0 0 92.63 54.1 149.81 149.81 0 0 0 23.65 1.89 148.24 148.24 0 0 0 146.26-125 147.48 147.48 0 0 0-2.34-58.85zm-10.79 56.75a135 135 0 0 1-133 113.7 137.33 137.33 0 0 1-21.61-1.72A135 135 0 0 1 119.69 39a134 134 0 0 1 78.89-25.69 136.17 136.17 0 0 1 21.61 1.73 135 135 0 0 1 112 154.6zM477 222.87a6.93 6.93 0 1 1-13.86 0v-34c0-11.73-7-18.89-16.76-18.89s-21.63 5.49-21.63 20.72v32.14a6.93 6.93 0 1 1-13.86 0v-97.31a6.93 6.93 0 1 1 13.86 0v43.11c4.27-8.53 15.69-12.18 23.46-12.18C466 156.46 477.12 168 477 188zM558.92 198.8h-52.4c1.67 11.88 11 19.34 23 19.34 8.53 0 13.25-2.13 18.12-7.46 2.59-2.89 6.55-3.81 9.3-1.83 2.74 2.14 3.35 6.25 1.21 8.69-6.85 8.83-17.51 13.1-29.09 13.1-20.26 0-36.4-14.78-36.4-37.32s16.14-36.86 36.4-36.86 35.34 14.31 35.34 36.86a5.46 5.46 0 0 1-5.48 5.48zm-8.23-10.8c-1.68-11.89-10.21-19-21.63-19-11.73 0-20.87 7.15-22.54 19zM612.53 169.71c-13.71 0-19.5 14.62-19.5 33.51v19.65a6.93 6.93 0 1 1-13.86 0v-58.65a6.93 6.93 0 1 1 13.86 0V174c3.66-12.49 10.51-17.51 19.8-17.51 5.18 0 13.71 1.06 12.49 8.53-.76 4.41-4.72 5.33-9.59 4.87a24 24 0 0 0-3.2-.18zM650.3 257.14a6.93 6.93 0 1 1-13.86 0v-92.92a6.93 6.93 0 1 1 13.86 0v4.88c4.72-8.07 14.93-12.64 24.83-12.64 19.5 0 35.64 14.77 35.64 37.31s-16.14 36.87-35.64 36.87c-9.9 0-20.11-4-24.83-12.19zm23.46-40.06c12.8 0 23-9 23-23.15s-10.2-23.92-23-23.92c-12.49 0-23.3 8.84-23.3 23.92s11.88 23.15 23.3 23.15zM789.21 198.8h-52.39c1.67 11.88 11 19.34 23 19.34 8.53 0 13.25-2.13 18.12-7.46 2.59-2.89 6.55-3.81 9.3-1.83 2.74 2.14 3.35 6.25 1.21 8.69-6.85 8.83-17.51 13.1-29.09 13.1-20.26 0-36.4-14.78-36.4-37.32s16.14-36.86 36.4-36.86 35.34 14.31 35.34 36.86a5.46 5.46 0 0 1-5.49 5.48zM781 188c-1.68-11.89-10.21-19-21.63-19-11.73 0-20.87 7.15-22.54 19zM832.47 218.45c7.16 0 12.49-3.81 12.49-9.44 0-5.18-4.11-7.77-9.44-9l-9.75-2.29c-12-3.19-19.19-9.14-19.19-20.41 0-11.73 10.51-20.86 24.83-20.86 9.29 0 18.27 3.35 22.39 11.57a6.55 6.55 0 0 1 .76 3.2c0 4.57-4.42 6.25-6.55 6.25s-3.51-1.07-5-3c-3.2-4.27-6.85-5.94-11.27-5.94-6.7 0-11.12 4-11.12 9.29 0 4.57 4.42 7.16 9 8.23l10.51 2.58c14.77 3.66 18.43 12.65 18.43 20.72 0 13.25-12.8 21.33-27.57 21.33-11 0-22.24-6.1-25.59-17.06a12.39 12.39 0 0 1-.31-2.14c0-3.65 3.51-5.48 6.71-5.48a6.16 6.16 0 0 1 5.94 4c1.94 5.1 7.57 8.45 14.73 8.45zM900.56 188.9L929 218.45c2.44 2.89 2.44 7.16-.3 9.44a6.93 6.93 0 0 1-9.75 0l-31.08-33.51v28.49a6.93 6.93 0 1 1-13.86 0v-97.34a6.93 6.93 0 1 1 13.86 0v57.28l23.31-23.61a6.85 6.85 0 0 1 9.44-.15 6.92 6.92 0 0 1 0 9.74zM934.83 193.32c0-22.55 16.9-36.86 37.16-36.86s37.32 14.31 37.32 36.86-17.06 37.32-37.31 37.32-37.17-14.78-37.17-37.32zm60.62 0C995.45 179 984.79 170 972 170s-23.45 9-23.45 23.31c0 14.47 10.66 23.91 23.45 23.91s23.45-9.43 23.45-23.9zM1038.1 222.87a6.93 6.93 0 1 1-13.86 0v-97.34a6.93 6.93 0 1 1 13.86 0zM1074.2 222.87a6.93 6.93 0 1 1-13.86 0v-97.34a6.93 6.93 0 1 1 13.86 0zM1155.38 198.8H1103c1.68 11.88 11 19.34 23 19.34 8.53 0 13.26-2.13 18.13-7.46 2.59-2.89 6.55-3.81 9.29-1.83 2.74 2.14 3.35 6.25 1.22 8.69-6.85 8.83-17.52 13.1-29.09 13.1-20.26 0-36.41-14.78-36.41-37.32s16.15-36.86 36.41-36.86 35.34 14.31 35.34 36.86a5.46 5.46 0 0 1-5.51 5.48zm-8.22-10.8c-1.68-11.89-10.21-19-21.63-19-11.73 0-20.87 7.15-22.55 19zM1191 168.64c4.27-8.53 14.47-12.18 22.24-12.18 17.67 0 27.42 11.57 27.42 31.53v34.88a6.93 6.93 0 1 1-13.86 0v-34c0-11.88-5.94-18.89-15.69-18.89-10.05 0-20.11 5.64-20.11 20.72v32.14a6.93 6.93 0 1 1-13.86 0v-58.62a6.93 6.93 0 1 1 13.86 0zM1267.33 211.6a9.76 9.76 0 0 1 10.06 9.59c0 5.48-4.57 9.45-10.06 9.45a9.6 9.6 0 0 1-9.9-9.45 9.72 9.72 0 0 1 9.9-9.59zM1320.79 218.45c7.16 0 12.49-3.81 12.49-9.44 0-5.18-4.11-7.77-9.44-9l-9.75-2.29c-12-3.19-19.19-9.14-19.19-20.41 0-11.73 10.51-20.86 24.83-20.86 9.29 0 18.28 3.35 22.39 11.57a6.55 6.55 0 0 1 .76 3.2c0 4.57-4.42 6.25-6.55 6.25-2 0-3.5-1.07-5-3-3.19-4.27-6.85-5.94-11.27-5.94-6.7 0-11.12 4-11.12 9.29 0 4.57 4.42 7.16 9 8.23l10.51 2.58c14.77 3.66 18.43 12.65 18.43 20.72 0 13.25-12.79 21.33-27.57 21.33-11 0-22.24-6.1-25.59-17.06a12.3 12.3 0 0 1-.3-2.14c0-3.65 3.5-5.48 6.7-5.48a6.15 6.15 0 0 1 5.94 4c1.94 5.1 7.58 8.45 14.73 8.45zM1422.85 198.8h-52.4c1.67 11.88 11 19.34 23 19.34 8.53 0 13.25-2.13 18.13-7.46 2.58-2.89 6.55-3.81 9.29-1.83 2.74 2.14 3.35 6.25 1.22 8.69-6.86 8.83-17.52 13.1-29.1 13.1-20.26 0-36.4-14.78-36.4-37.32s16.14-36.86 36.4-36.86 35.34 14.31 35.34 36.86a5.46 5.46 0 0 1-5.48 5.48zm-8.23-10.8c-1.67-11.89-10.2-19-21.63-19-11.73 0-20.87 7.15-22.54 19z"/></g></g></svg>