<svg xmlns="http://www.w3.org/2000/svg" xmlns:xlink="http://www.w3.org/1999/xlink" width="500" zoomAndPan="magnify" viewBox="0 0 375 374.999991" height="500" preserveAspectRatio="xMidYMid meet" version="1.0"><defs><g/><clipPath id="id1"><path d="M 127.40625 100.078125 L 205.042969 100.078125 L 205.042969 250.03125 L 127.40625 250.03125 Z M 127.40625 100.078125 " clip-rule="nonzero"/></clipPath><clipPath id="id2"><path d="M 169.105469 138.484375 L 247.40625 138.484375 L 247.40625 219 L 169.105469 219 Z M 169.105469 138.484375 " clip-rule="nonzero"/></clipPath><clipPath id="id3"><path d="M 294.792969 268.132812 L 304.542969 268.132812 L 304.542969 277.882812 L 294.792969 277.882812 Z M 294.792969 268.132812 " clip-rule="nonzero"/></clipPath></defs><g clip-path="url(#id1)"><path fill="#3d3934" d="M 196.523438 233.847656 C 193.71875 230.621094 191.121094 228.566406 189.433594 227.410156 C 183.433594 223.296875 175.554688 223.65625 167.214844 224.035156 C 164.472656 224.160156 161.640625 224.289062 158.851562 224.253906 C 152.8125 224.175781 145.296875 224.082031 142.078125 223.019531 C 141.003906 222.621094 138.855469 221.757812 140.335938 215.441406 C 141.011719 212.554688 141.851562 208.964844 140.671875 205.332031 C 140.660156 205.300781 140.652344 205.269531 140.640625 205.238281 C 139.90625 203.085938 138.609375 201.359375 137.570312 199.972656 C 137.335938 199.664062 137.398438 199.144531 137.699219 198.886719 C 139.132812 197.660156 140.777344 196.789062 142.585938 196.304688 C 143.75 195.992188 144.597656 195.058594 144.808594 193.875 C 145.019531 192.683594 144.539062 191.515625 143.550781 190.816406 C 140.601562 188.734375 138.800781 186.636719 138.660156 185.136719 C 138.671875 185.128906 138.683594 185.121094 138.691406 185.117188 C 139.992188 184.199219 141.820312 182.695312 143.152344 180.726562 C 144.976562 178.027344 145.421875 175.113281 144.4375 172.304688 C 143.414062 169.375 140.902344 167.484375 137.714844 165.089844 C 136.804688 164.40625 135.863281 163.699219 134.871094 162.902344 C 131.597656 160.28125 131.167969 158.835938 131.207031 158.207031 C 131.285156 156.796875 133.769531 155.128906 136.089844 153.675781 L 136.304688 153.542969 C 138.425781 152.222656 144.871094 148.199219 150.914062 143.078125 C 154.390625 140.136719 157.148438 137.3125 159.109375 134.691406 C 161.65625 131.292969 162.933594 128.125 162.914062 125.28125 C 162.914062 125.277344 162.914062 125.273438 162.914062 125.273438 C 163.097656 123.855469 163.195312 122.316406 163.308594 120.539062 C 163.632812 115.398438 164.03125 109.019531 166.835938 103.054688 C 166.914062 102.941406 166.980469 102.816406 167.035156 102.679688 C 167.421875 101.707031 166.945312 100.597656 165.972656 100.210938 C 165.039062 99.84375 163.96875 100.261719 163.53125 101.167969 C 160.300781 107.871094 159.847656 115.054688 159.519531 120.296875 C 159.410156 122.039062 159.316406 123.542969 159.140625 124.855469 C 159.132812 124.910156 159.128906 124.964844 159.125 125.019531 L 159.125 125.046875 C 159.121094 125.105469 159.117188 125.195312 159.117188 125.300781 C 159.132812 127.300781 158.109375 129.691406 156.074219 132.40625 C 154.28125 134.804688 151.71875 137.414062 148.460938 140.175781 C 142.628906 145.117188 136.359375 149.03125 134.296875 150.316406 L 134.078125 150.453125 C 130.675781 152.582031 127.601562 154.761719 127.414062 157.984375 C 127.269531 160.476562 128.886719 162.980469 132.5 165.875 C 133.539062 166.707031 134.546875 167.464844 135.4375 168.132812 C 138.210938 170.214844 140.214844 171.722656 140.855469 173.558594 C 142.167969 177.316406 138.695312 180.464844 136.507812 182.003906 C 136.480469 182.023438 136.453125 182.042969 136.425781 182.0625 C 135.992188 182.34375 134.851562 183.089844 134.855469 184.828125 C 134.816406 186.597656 135.613281 188.433594 137.214844 190.289062 C 138.019531 191.214844 139.023438 192.148438 140.210938 193.070312 C 138.394531 193.738281 136.726562 194.71875 135.230469 195.996094 C 134.351562 196.75 133.796875 197.8125 133.660156 198.984375 C 133.527344 200.164062 133.835938 201.324219 134.535156 202.253906 C 135.503906 203.550781 136.507812 204.890625 137.046875 206.464844 L 137.050781 206.484375 C 137.054688 206.488281 137.054688 206.492188 137.058594 206.5 C 137.914062 209.128906 137.265625 211.894531 136.636719 214.574219 C 135.957031 217.488281 135.855469 219.8125 136.328125 221.6875 C 136.925781 224.035156 138.46875 225.734375 140.789062 226.597656 C 140.808594 226.605469 140.828125 226.613281 140.847656 226.617188 C 144.613281 227.875 151.828125 227.96875 158.804688 228.054688 C 161.703125 228.09375 164.59375 227.960938 167.386719 227.835938 C 175.074219 227.484375 182.335938 227.152344 187.289062 230.550781 C 189.96875 232.386719 196.699219 237.847656 201.347656 248.855469 C 201.609375 249.472656 202.183594 249.914062 202.84375 250.011719 C 202.933594 250.023438 203.023438 250.03125 203.113281 250.03125 C 203.683594 250.03125 204.238281 249.773438 204.605469 249.328125 C 205.152344 248.660156 205.167969 247.730469 204.707031 247.054688 C 202.570312 242.074219 199.816406 237.632812 196.523438 233.847656 " fill-opacity="1" fill-rule="nonzero"/></g><path fill="#3d3934" d="M 151.160156 152.328125 C 149.457031 152.328125 148.070312 153.71875 148.070312 155.425781 C 148.070312 157.132812 149.457031 158.523438 151.160156 158.523438 C 152.867188 158.523438 154.253906 157.132812 154.253906 155.425781 C 154.253906 153.71875 152.867188 152.328125 151.160156 152.328125 " fill-opacity="1" fill-rule="nonzero"/><path fill="#3d3934" d="M 163.660156 171.664062 C 163.660156 169.367188 161.792969 167.496094 159.496094 167.496094 C 157.203125 167.496094 155.335938 169.367188 155.335938 171.664062 C 155.335938 173.960938 157.203125 175.832031 159.496094 175.832031 C 161.792969 175.832031 163.660156 173.960938 163.660156 171.664062 " fill-opacity="1" fill-rule="nonzero"/><path fill="#3d3934" d="M 156.441406 192.484375 C 158.226562 192.484375 159.675781 191.03125 159.675781 189.242188 C 159.675781 187.457031 158.226562 186 156.441406 186 C 154.65625 186 153.203125 187.457031 153.203125 189.242188 C 153.203125 191.03125 154.65625 192.484375 156.441406 192.484375 " fill-opacity="1" fill-rule="nonzero"/><path fill="#3d3934" d="M 182.984375 202.636719 C 182.984375 200.429688 181.191406 198.632812 178.988281 198.632812 C 176.78125 198.632812 174.988281 200.429688 174.988281 202.636719 C 174.988281 204.847656 176.78125 206.640625 178.988281 206.640625 C 181.191406 206.640625 182.984375 204.847656 182.984375 202.636719 " fill-opacity="1" fill-rule="nonzero"/><path fill="#3d3934" d="M 191.519531 171.710938 C 190.347656 171.710938 189.394531 172.667969 189.394531 173.839844 C 189.394531 175.011719 190.347656 175.96875 191.519531 175.96875 C 192.691406 175.96875 193.644531 175.011719 193.644531 173.839844 C 193.644531 172.667969 192.691406 171.710938 191.519531 171.710938 " fill-opacity="1" fill-rule="nonzero"/><path fill="#3d3934" d="M 186.785156 162.292969 C 185.285156 162.292969 184.0625 163.515625 184.0625 165.015625 C 184.0625 166.519531 185.285156 167.742188 186.785156 167.742188 C 188.285156 167.742188 189.507812 166.519531 189.507812 165.015625 C 189.507812 163.515625 188.285156 162.292969 186.785156 162.292969 " fill-opacity="1" fill-rule="nonzero"/><path fill="#3d3934" d="M 190.839844 156.734375 C 192.261719 156.734375 193.417969 155.578125 193.417969 154.152344 C 193.417969 152.730469 192.261719 151.574219 190.839844 151.574219 C 189.417969 151.574219 188.261719 152.730469 188.261719 154.152344 C 188.261719 155.578125 189.417969 156.734375 190.839844 156.734375 " fill-opacity="1" fill-rule="nonzero"/><path fill="#3d3934" d="M 159.496094 210.199219 C 160.914062 210.199219 162.0625 209.046875 162.0625 207.628906 C 162.0625 206.210938 160.914062 205.058594 159.496094 205.058594 C 158.082031 205.058594 156.929688 206.210938 156.929688 207.628906 C 156.929688 209.046875 158.082031 210.199219 159.496094 210.199219 " fill-opacity="1" fill-rule="nonzero"/><path fill="#3d3934" d="M 164.121094 149.671875 C 164.121094 150.832031 165.0625 151.777344 166.222656 151.777344 C 167.378906 151.777344 168.320312 150.832031 168.320312 149.671875 C 168.320312 148.515625 167.378906 147.570312 166.222656 147.570312 C 165.0625 147.570312 164.121094 148.515625 164.121094 149.671875 " fill-opacity="1" fill-rule="nonzero"/><path fill="#3d3934" d="M 197.855469 211.496094 C 197.855469 210.308594 196.894531 209.347656 195.710938 209.347656 C 194.527344 209.347656 193.566406 210.308594 193.566406 211.496094 C 193.566406 212.679688 194.527344 213.644531 195.710938 213.644531 C 196.894531 213.644531 197.855469 212.679688 197.855469 211.496094 " fill-opacity="1" fill-rule="nonzero"/><path fill="#3d3934" d="M 207.449219 171.691406 C 206.265625 171.691406 205.304688 172.65625 205.304688 173.839844 C 205.304688 175.023438 206.265625 175.988281 207.449219 175.988281 C 208.632812 175.988281 209.59375 175.023438 209.59375 173.839844 C 209.59375 172.65625 208.632812 171.691406 207.449219 171.691406 " fill-opacity="1" fill-rule="nonzero"/><g clip-path="url(#id2)"><path fill="#3d3934" d="M 242.335938 214.054688 C 240.78125 215.527344 238.332031 215.550781 236.753906 214.105469 L 220.398438 199.128906 C 219.550781 198.355469 219.078125 197.292969 219.066406 196.140625 C 219.058594 194.988281 219.511719 193.917969 220.34375 193.128906 L 221.347656 192.175781 L 222.347656 191.222656 C 223.117188 190.492188 224.109375 190.097656 225.160156 190.097656 C 225.234375 190.097656 225.308594 190.101562 225.386719 190.105469 C 226.519531 190.164062 227.550781 190.675781 228.285156 191.539062 L 242.632812 208.417969 C 244.046875 210.078125 243.914062 212.554688 242.335938 214.054688 Z M 212.871094 183.222656 C 203.402344 192.21875 188.390625 191.820312 179.410156 182.335938 C 175.058594 177.738281 172.757812 171.722656 172.925781 165.394531 C 173.09375 159.0625 175.710938 153.179688 180.296875 148.820312 C 184.867188 144.480469 190.726562 142.328125 196.578125 142.328125 C 202.851562 142.328125 209.113281 144.804688 213.757812 149.710938 C 222.738281 159.195312 222.339844 174.230469 212.871094 183.222656 Z M 245.523438 205.953125 L 231.175781 189.074219 C 229.757812 187.40625 227.773438 186.421875 225.589844 186.304688 C 223.574219 186.199219 221.65625 186.839844 220.125 188.121094 L 216.816406 184.625 C 218.878906 182.382812 220.535156 179.839844 221.753906 177.042969 C 223.175781 173.785156 223.945312 170.320312 224.039062 166.75 C 224.132812 163.179688 223.550781 159.683594 222.300781 156.351562 C 221.011719 152.902344 219.0625 149.789062 216.511719 147.09375 C 213.960938 144.398438 210.960938 142.285156 207.589844 140.8125 C 204.335938 139.390625 200.878906 138.617188 197.3125 138.523438 C 193.746094 138.429688 190.253906 139.015625 186.929688 140.261719 C 183.484375 141.558594 180.375 143.507812 177.683594 146.0625 C 174.996094 148.617188 172.886719 151.625 171.414062 155 C 169.992188 158.257812 169.222656 161.722656 169.128906 165.292969 C 169.035156 168.863281 169.617188 172.363281 170.867188 175.691406 C 172.15625 179.140625 174.105469 182.257812 176.65625 184.949219 C 179.207031 187.644531 182.207031 189.757812 185.578125 191.230469 C 188.832031 192.65625 192.292969 193.425781 195.855469 193.519531 C 196.105469 193.527344 196.351562 193.53125 196.601562 193.53125 C 199.90625 193.53125 203.144531 192.941406 206.238281 191.78125 C 209.09375 190.710938 211.714844 189.1875 214.0625 187.242188 L 217.371094 190.738281 C 216.011719 192.207031 215.253906 194.164062 215.269531 196.175781 C 215.292969 198.363281 216.226562 200.460938 217.835938 201.9375 L 234.191406 216.910156 C 235.652344 218.246094 237.539062 218.980469 239.515625 218.980469 C 239.539062 218.980469 239.566406 218.980469 239.589844 218.980469 C 241.589844 218.960938 243.492188 218.191406 244.945312 216.8125 C 247.988281 213.921875 248.246094 209.152344 245.523438 205.953125 " fill-opacity="1" fill-rule="nonzero"/></g><path fill="#3d3934" d="M 300.59375 272.390625 C 300.550781 272.484375 300.488281 272.550781 300.410156 272.601562 C 300.328125 272.652344 300.238281 272.675781 300.132812 272.675781 L 299.039062 272.675781 L 299.039062 271.445312 L 300.132812 271.445312 C 300.242188 271.445312 300.332031 271.46875 300.410156 271.519531 C 300.488281 271.566406 300.550781 271.636719 300.59375 271.730469 C 300.636719 271.824219 300.660156 271.933594 300.660156 272.058594 C 300.660156 272.183594 300.636719 272.296875 300.59375 272.390625 Z M 300.683594 273.335938 C 300.734375 273.316406 300.78125 273.292969 300.828125 273.269531 C 301.039062 273.152344 301.203125 272.988281 301.320312 272.78125 C 301.433594 272.574219 301.492188 272.332031 301.492188 272.058594 C 301.492188 271.789062 301.4375 271.546875 301.320312 271.339844 C 301.207031 271.132812 301.042969 270.96875 300.832031 270.851562 C 300.625 270.738281 300.382812 270.683594 300.109375 270.683594 L 298.246094 270.683594 L 298.246094 275.335938 L 299.039062 275.335938 L 299.039062 273.4375 L 299.847656 273.4375 L 300.804688 275.335938 L 301.734375 275.335938 L 300.683594 273.335938 " fill-opacity="1" fill-rule="nonzero"/><g clip-path="url(#id3)"><path fill="#3d3934" d="M 299.667969 268.929688 C 297.417969 268.929688 295.589844 270.757812 295.589844 273.007812 C 295.589844 275.257812 297.417969 277.089844 299.667969 277.089844 C 301.917969 277.089844 303.75 275.257812 303.75 273.007812 C 303.75 270.757812 301.917969 268.929688 299.667969 268.929688 Z M 299.667969 277.882812 C 299.011719 277.882812 298.371094 277.753906 297.769531 277.5 C 297.191406 277.253906 296.667969 276.902344 296.222656 276.457031 C 295.773438 276.007812 295.421875 275.488281 295.175781 274.90625 C 294.921875 274.304688 294.792969 273.667969 294.792969 273.007812 C 294.792969 272.351562 294.921875 271.710938 295.175781 271.113281 C 295.421875 270.53125 295.773438 270.007812 296.222656 269.5625 C 296.667969 269.113281 297.191406 268.761719 297.769531 268.515625 C 298.371094 268.261719 299.011719 268.132812 299.667969 268.132812 C 300.324219 268.132812 300.964844 268.261719 301.566406 268.515625 C 302.144531 268.761719 302.667969 269.113281 303.117188 269.5625 C 303.5625 270.007812 303.914062 270.53125 304.160156 271.113281 C 304.414062 271.710938 304.542969 272.351562 304.542969 273.007812 C 304.542969 273.667969 304.414062 274.304688 304.160156 274.90625 C 303.914062 275.488281 303.5625 276.007812 303.117188 276.457031 C 302.667969 276.902344 302.144531 277.253906 301.566406 277.5 C 300.964844 277.753906 300.324219 277.882812 299.667969 277.882812 " fill-opacity="1" fill-rule="nonzero"/></g><g fill="#3d3934" fill-opacity="1"><g transform="translate(80.230465, 295.865049)"><g><path d="M 5.667969 0 L 12.6875 0 L 12.6875 -13.496094 L 17.816406 -13.496094 L 17.816406 -19.433594 L 0.539062 -19.433594 L 0.539062 -13.496094 L 5.667969 -13.496094 Z M 5.667969 0 "/></g></g></g><g fill="#3d3934" fill-opacity="1"><g transform="translate(98.58245, 295.865049)"><g><path d="M 0.808594 0 L 7.019531 0 L 7.019531 -7.558594 C 7.019531 -8.582031 7.53125 -9.175781 8.367188 -9.175781 C 9.042969 -9.175781 9.449219 -8.71875 9.449219 -7.9375 L 9.449219 0 L 15.65625 0 L 15.65625 -10.257812 C 15.65625 -12.792969 14.144531 -14.304688 11.605469 -14.304688 C 9.582031 -14.304688 7.882812 -13.0625 7.046875 -10.984375 L 7.019531 -10.984375 L 7.019531 -20.246094 L 0.808594 -20.246094 Z M 0.808594 0 "/></g></g></g><g fill="#3d3934" fill-opacity="1"><g transform="translate(115.045255, 295.865049)"><g><path d="M 9.449219 0.539062 C 12.308594 0.539062 14.953125 -0.433594 16.25 -1.917969 L 13.359375 -4.859375 C 12.46875 -4.101562 11.039062 -3.644531 9.746094 -3.644531 C 8.125 -3.644531 6.964844 -4.265625 6.800781 -5.398438 L 15.710938 -5.398438 C 15.925781 -5.992188 16.058594 -6.910156 16.058594 -7.746094 C 16.058594 -11.875 13.039062 -14.574219 8.394531 -14.574219 C 3.535156 -14.574219 0.378906 -11.578125 0.40625 -7.019531 C 0.40625 -2.457031 4.050781 0.539062 9.449219 0.539062 Z M 6.722656 -8.367188 C 6.800781 -9.664062 7.476562 -10.527344 8.394531 -10.527344 C 9.285156 -10.527344 9.851562 -9.664062 9.851562 -8.367188 Z M 6.722656 -8.367188 "/></g></g></g><g fill="#3d3934" fill-opacity="1"><g transform="translate(131.69698, 295.865049)"><g/></g></g><g fill="#3d3934" fill-opacity="1"><g transform="translate(136.284973, 295.865049)"><g><path d="M 0 0 L 7.261719 0 L 8.015625 -2.96875 L 13.578125 -2.96875 L 14.332031 0 L 21.648438 0 L 15.144531 -19.433594 L 6.503906 -19.433594 Z M 9.015625 -7.558594 L 10.796875 -14.332031 L 10.851562 -14.332031 L 12.578125 -7.558594 Z M 9.015625 -7.558594 "/></g></g></g><g fill="#3d3934" fill-opacity="1"><g transform="translate(157.929514, 295.865049)"><g><path d="M 8.125 0.539062 C 12.523438 0.539062 15.546875 -2.078125 15.789062 -6.074219 L 10.121094 -6.75 C 10.042969 -5.289062 9.367188 -4.320312 8.394531 -4.320312 C 7.367188 -4.320312 6.640625 -5.398438 6.613281 -7.019531 C 6.585938 -8.636719 7.261719 -9.71875 8.257812 -9.71875 C 9.070312 -9.71875 9.769531 -9.070312 9.796875 -7.421875 L 15.332031 -8.90625 C 14.847656 -12.335938 11.957031 -14.574219 8.042969 -14.574219 C 3.429688 -14.574219 0.40625 -11.578125 0.40625 -7.019531 C 0.40625 -2.457031 3.453125 0.539062 8.125 0.539062 Z M 8.125 0.539062 "/></g></g></g><g fill="#3d3934" fill-opacity="1"><g transform="translate(174.122434, 295.865049)"><g><path d="M 11.605469 -14.304688 C 9.582031 -14.304688 7.855469 -13.0625 7.019531 -10.984375 L 6.992188 -10.984375 L 5.9375 -14.035156 L 0.808594 -14.035156 L 0.808594 0 L 7.019531 0 L 7.019531 -7.558594 C 7.019531 -8.582031 7.53125 -9.175781 8.367188 -9.175781 C 9.042969 -9.175781 9.449219 -8.71875 9.449219 -7.9375 L 9.449219 0 L 15.65625 0 L 15.65625 -10.257812 C 15.65625 -12.792969 14.144531 -14.304688 11.605469 -14.304688 Z M 11.605469 -14.304688 "/></g></g></g><g fill="#3d3934" fill-opacity="1"><g transform="translate(190.58524, 295.865049)"><g><path d="M 9.449219 0.539062 C 12.308594 0.539062 14.953125 -0.433594 16.25 -1.917969 L 13.359375 -4.859375 C 12.46875 -4.101562 11.039062 -3.644531 9.746094 -3.644531 C 8.125 -3.644531 6.964844 -4.265625 6.800781 -5.398438 L 15.710938 -5.398438 C 15.925781 -5.992188 16.058594 -6.910156 16.058594 -7.746094 C 16.058594 -11.875 13.039062 -14.574219 8.394531 -14.574219 C 3.535156 -14.574219 0.378906 -11.578125 0.40625 -7.019531 C 0.40625 -2.457031 4.050781 0.539062 9.449219 0.539062 Z M 6.722656 -8.367188 C 6.800781 -9.664062 7.476562 -10.527344 8.394531 -10.527344 C 9.285156 -10.527344 9.851562 -9.664062 9.851562 -8.367188 Z M 6.722656 -8.367188 "/></g></g></g><g fill="#3d3934" fill-opacity="1"><g transform="translate(207.236964, 295.865049)"><g/></g></g><g fill="#3d3934" fill-opacity="1"><g transform="translate(211.824958, 295.865049)"><g><path d="M 8.125 0.539062 C 12.523438 0.539062 15.546875 -2.078125 15.789062 -6.074219 L 10.121094 -6.75 C 10.042969 -5.289062 9.367188 -4.320312 8.394531 -4.320312 C 7.367188 -4.320312 6.640625 -5.398438 6.613281 -7.019531 C 6.585938 -8.636719 7.261719 -9.71875 8.257812 -9.71875 C 9.070312 -9.71875 9.769531 -9.070312 9.796875 -7.421875 L 15.332031 -8.90625 C 14.847656 -12.335938 11.957031 -14.574219 8.042969 -14.574219 C 3.429688 -14.574219 0.40625 -11.578125 0.40625 -7.019531 C 0.40625 -2.457031 3.453125 0.539062 8.125 0.539062 Z M 8.125 0.539062 "/></g></g></g><g fill="#3d3934" fill-opacity="1"><g transform="translate(228.017877, 295.865049)"><g><path d="M 0.808594 0 L 7.019531 0 L 7.019531 -7.558594 C 7.019531 -8.582031 7.53125 -9.175781 8.367188 -9.175781 C 9.042969 -9.175781 9.449219 -8.71875 9.449219 -7.9375 L 9.449219 0 L 15.65625 0 L 15.65625 -10.257812 C 15.65625 -12.792969 14.144531 -14.304688 11.605469 -14.304688 C 9.582031 -14.304688 7.882812 -13.0625 7.046875 -10.984375 L 7.019531 -10.984375 L 7.019531 -20.246094 L 0.808594 -20.246094 Z M 0.808594 0 "/></g></g></g><g fill="#3d3934" fill-opacity="1"><g transform="translate(244.480683, 295.865049)"><g><path d="M 9.449219 0.539062 C 12.308594 0.539062 14.953125 -0.433594 16.25 -1.917969 L 13.359375 -4.859375 C 12.46875 -4.101562 11.039062 -3.644531 9.746094 -3.644531 C 8.125 -3.644531 6.964844 -4.265625 6.800781 -5.398438 L 15.710938 -5.398438 C 15.925781 -5.992188 16.058594 -6.910156 16.058594 -7.746094 C 16.058594 -11.875 13.039062 -14.574219 8.394531 -14.574219 C 3.535156 -14.574219 0.378906 -11.578125 0.40625 -7.019531 C 0.40625 -2.457031 4.050781 0.539062 9.449219 0.539062 Z M 6.722656 -8.367188 C 6.800781 -9.664062 7.476562 -10.527344 8.394531 -10.527344 C 9.285156 -10.527344 9.851562 -9.664062 9.851562 -8.367188 Z M 6.722656 -8.367188 "/></g></g></g><g fill="#3d3934" fill-opacity="1"><g transform="translate(261.132408, 295.865049)"><g><path d="M 8.125 0.539062 C 12.523438 0.539062 15.546875 -2.078125 15.789062 -6.074219 L 10.121094 -6.75 C 10.042969 -5.289062 9.367188 -4.320312 8.394531 -4.320312 C 7.367188 -4.320312 6.640625 -5.398438 6.613281 -7.019531 C 6.585938 -8.636719 7.261719 -9.71875 8.257812 -9.71875 C 9.070312 -9.71875 9.769531 -9.070312 9.796875 -7.421875 L 15.332031 -8.90625 C 14.847656 -12.335938 11.957031 -14.574219 8.042969 -14.574219 C 3.429688 -14.574219 0.40625 -11.578125 0.40625 -7.019531 C 0.40625 -2.457031 3.453125 0.539062 8.125 0.539062 Z M 8.125 0.539062 "/></g></g></g><g fill="#3d3934" fill-opacity="1"><g transform="translate(277.325316, 295.865049)"><g><path d="M 0.808594 0 L 7.019531 0 L 7.019531 -4.128906 L 8.152344 -5.289062 L 10.796875 0 L 17.4375 0 L 12.171875 -8.800781 L 17.382812 -14.035156 L 10.527344 -14.035156 L 7.046875 -10.230469 L 7.019531 -10.230469 L 7.019531 -20.246094 L 0.808594 -20.246094 Z M 0.808594 0 "/></g></g></g></svg>