<svg xmlns="http://www.w3.org/2000/svg" viewBox="0 0 1712.93 387.07"><g id="Lager_2" data-name="Lager 2"><g id="Lager_1-2" data-name="Lager 1"><path d="M447.35,147.31A193.54,193.54,0,1,0,97.8,299.94L3.49,370.58a8.71,8.71,0,0,0,5.23,15.68,8.61,8.61,0,0,0,5.21-1.74L108,314A192.81,192.81,0,0,0,228.85,384.6a194.58,194.58,0,0,0,30.84,2.47A193.64,193.64,0,0,0,447.35,147.31Zm-14.07,74a176.17,176.17,0,0,1-173.5,148.31,177.91,177.91,0,0,1-28.18-2.25A176.07,176.07,0,0,1,156.13,50.93,174.73,174.73,0,0,1,259,17.42a177.82,177.82,0,0,1,28.18,2.25A176.08,176.08,0,0,1,433.28,221.34Z"/><path d="M578.85,300.84c-26.42,0-48.48-19.27-48.48-48.67s22.06-48.09,48.48-48.09,48.68,18.68,48.68,48.09S605.28,300.84,578.85,300.84Zm-32-121.79c0,6.75,5.57,11.72,12.32,11.72a11.73,11.73,0,1,0,0-23.44C552.43,167.33,546.86,172.29,546.86,179.05Zm32,104.31c16.69,0,30.6-12.32,30.6-31.19,0-18.68-13.91-30.4-30.6-30.4s-30.6,11.72-30.6,30.4C548.25,271,562.16,283.36,578.85,283.36Zm7.35-104.31c0,6.75,5.57,11.72,12.32,11.72s12.32-5,12.32-11.72-5.56-11.72-12.32-11.72S586.2,172.29,586.2,179.05Z"/><path d="M690.31,328.06c20.07,0,33-11.32,33-42.12a8.06,8.06,0,0,0-.2-2.18c-5.57,10.92-19.67,17.08-32.59,17.08-25.43,0-47.09-18.67-47.09-48.08,0-29.6,21.66-48.68,47.09-48.68,12.92,0,26.43,5.77,32.59,16.49v-6.35a9,9,0,1,1,18.08,0v70.53c-.2,43.71-20.27,60.4-50.87,60.4a47.16,47.16,0,0,1-37.95-18.87,8.38,8.38,0,0,1,3-11.73c3.78-2.38,8.75-.39,12.32,3.58A30.9,30.9,0,0,0,690.31,328.06Zm1.79-106.29c-16.69,0-30.2,12.71-30.2,30.79,0,18.88,13.51,30.6,30.2,30.6,14.9,0,30.8-10.93,30.8-30.6C722.9,232.69,708.59,221.77,692.1,221.77Z"/><path d="M762.63,252.17c0-29.41,22-48.09,48.48-48.09s48.68,18.68,48.68,48.09-22.25,48.67-48.68,48.67S762.63,281.57,762.63,252.17Zm79.08,0c0-18.68-13.91-30.4-30.6-30.4s-30.6,11.72-30.6,30.4c0,18.87,13.91,31.19,30.6,31.19S841.71,271,841.71,252.17Z"/><path d="M899.13,220c5.56-11.13,18.87-15.9,29-15.9,23,0,35.77,15.1,35.77,41.13v45.5a9,9,0,1,1-18.08,0V246.4c0-15.49-7.75-24.63-20.47-24.63-13.11,0-26.22,7.35-26.22,27v41.92a9,9,0,1,1-18.08,0V214.22a9,9,0,1,1,18.08,0Z"/><path d="M1024.5,246.4,1061.65,285c3.18,3.77,3.18,9.34-.4,12.32a9,9,0,0,1-12.71,0L1008,253.56v37.15a9,9,0,1,1-18.08,0v-127a9,9,0,1,1,18.08,0v74.71l30.4-30.8a9,9,0,0,1,12.32-.2,9.05,9.05,0,0,1,0,12.72Z"/><path d="M1069.2,252.17c0-29.41,22-48.09,48.48-48.09s48.68,18.68,48.68,48.09-22.26,48.67-48.68,48.67S1069.2,281.57,1069.2,252.17Zm79.07,0c0-18.68-13.9-30.4-30.59-30.4s-30.6,11.72-30.6,30.4c0,18.87,13.91,31.19,30.6,31.19S1148.27,271,1148.27,252.17Z"/><path d="M1203.9,290.71a9,9,0,1,1-18.08,0v-127a9,9,0,1,1,18.08,0Z"/><path d="M1251,290.71a9,9,0,1,1-18.08,0v-127a9,9,0,1,1,18.08,0Z"/><path d="M1356.89,259.32h-68.35c2.19,15.5,14.31,25.23,30,25.23,11.12,0,17.28-2.78,23.64-9.73,3.38-3.78,8.54-5,12.12-2.39,3.58,2.78,4.37,8.15,1.59,11.33-8.94,11.52-22.85,17.08-38,17.08-26.43,0-47.49-19.27-47.49-48.67s21.06-48.09,47.49-48.09,46.1,18.68,46.1,48.09A7.12,7.12,0,0,1,1356.89,259.32Zm-10.73-14.11c-2.18-15.5-13.31-24.83-28.21-24.83-15.3,0-27.22,9.33-29.41,24.83Z"/><path d="M1403.38,220c5.57-11.13,18.88-15.9,29-15.9,23,0,35.76,15.1,35.76,41.13v45.5a9,9,0,1,1-18.08,0V246.4c0-15.49-7.74-24.63-20.46-24.63-13.11,0-26.23,7.35-26.23,27v41.92a9,9,0,1,1-18.08,0V214.22a9,9,0,1,1,18.08,0Z"/><path d="M1502.92,276c7.15,0,13.12,5.36,13.12,12.52s-6,12.31-13.12,12.31c-7,0-12.91-5.16-12.91-12.31A12.67,12.67,0,0,1,1502.92,276Z"/><path d="M1572.66,285c9.34,0,16.29-5,16.29-12.32,0-6.76-5.36-10.13-12.32-11.72l-12.71-3c-15.7-4.18-25-11.92-25-26.63,0-15.3,13.71-27.22,32.39-27.22,12.12,0,23.84,4.37,29.2,15.1a8.49,8.49,0,0,1,1,4.18c0,6-5.76,8.14-8.55,8.14-2.58,0-4.57-1.39-6.55-4-4.18-5.56-8.94-7.75-14.71-7.75-8.74,0-14.5,5.17-14.5,12.12,0,6,5.76,9.34,11.72,10.73l13.71,3.38c19.27,4.76,24,16.49,24,27,0,17.28-16.69,27.81-36,27.81-14.3,0-29-7.94-33.38-22.25a15.49,15.49,0,0,1-.4-2.78c0-4.77,4.57-7.15,8.75-7.15a8,8,0,0,1,7.75,5.16C1556,280.58,1563.32,285,1572.66,285Z"/><path d="M1705.78,259.32h-68.35c2.18,15.5,14.3,25.23,30,25.23,11.13,0,17.29-2.78,23.64-9.73,3.38-3.78,8.55-5,12.12-2.39,3.58,2.78,4.38,8.15,1.59,11.33-8.94,11.52-22.84,17.08-38,17.08-26.42,0-47.48-19.27-47.48-48.67s21.06-48.09,47.48-48.09,46.1,18.68,46.1,48.09A7.12,7.12,0,0,1,1705.78,259.32Zm-10.73-14.11c-2.19-15.5-13.31-24.83-28.22-24.83-15.29,0-27.22,9.33-29.4,24.83Z"/><path d="M381,189.73c-9.32-19.28-25.72-35.71-47.43-47.51s-47.46-18.12-74.18-18.12-52.36,6.27-74.18,18.12-38.1,28.23-47.42,47.51a8.68,8.68,0,0,0-.86,3.78v.05a8.68,8.68,0,0,0,.86,3.78c9.32,19.28,25.72,35.71,47.42,47.51S232.68,263,259.39,263s52.37-6.27,74.18-18.12,38.11-28.23,47.43-47.51a8.82,8.82,0,0,0,.86-3.78v-.05A8.82,8.82,0,0,0,381,189.73Zm-121.61,55.6a51.8,51.8,0,1,1,51.8-51.8A51.85,51.85,0,0,1,259.39,245.33Zm-104-51.8c9.79-17.59,27.07-31.85,48.39-41a69,69,0,0,0,0,82C182.42,225.39,165.14,211.13,155.35,193.53Zm159.7,41a69,69,0,0,0,0-81.95c21.32,9.12,38.6,23.38,48.38,41C353.65,211.13,336.37,225.39,315.05,234.51Z"/><circle cx="259.39" cy="193.53" r="17.88" transform="matrix(0.99, -0.16, 0.16, 0.99, -27.65, 44.05)"/><path d="M259.45,308.62a166.62,166.62,0,0,1-24.64-1.82,8.67,8.67,0,0,1,2.57-17.15,151.16,151.16,0,0,0,44,0A8.67,8.67,0,0,1,284,306.82,167.83,167.83,0,0,1,259.45,308.62Z"/></g></g></svg>