<svg xmlns="http://www.w3.org/2000/svg" viewBox="0 0 3180.02 711.08"><g data-name="Lager 2"><g data-name="Lager 1"><path d="M821.82 270.63A355.55 355.55 0 1 0 179.66 551L6.41 680.79a16 16 0 1 0 19.18 25.61l172.86-129.48a354.16 354.16 0 0 0 222 129.63 358.75 358.75 0 0 0 56.65 4.53 355.75 355.75 0 0 0 344.72-440.45zM796 406.62a323.65 323.65 0 0 1-318.76 272.46 328.21 328.21 0 0 1-51.76-4.08A323.47 323.47 0 0 1 286.82 93.56 321.07 321.07 0 0 1 475.87 32a328.43 328.43 0 0 1 51.77 4.13A323.46 323.46 0 0 1 796 406.62zM984.19 393.53a16.61 16.61 0 1 1 33.22 0v10.59c9.12-19 33.21-28.11 47.08-29.2a77.5 77.5 0 0 1 18.62 1.09c21.54 3.29 36.5 15.33 44.53 33.95 15.7-30.3 42.34-35 59.13-35 42.71 0 65.7 27.74 65.7 75.55v83.59a16.61 16.61 0 1 1-33.21 0v-81.4c0-28.1-14.6-45.26-39.06-45.26-28.1-.36-45.26 21.17-45.26 49.64v77a16.61 16.61 0 1 1-33.21 0V452.3c0-28.11-14.6-45.63-36.87-45.63-23.73 0-47.45 14.6-47.45 50.37v77a16.61 16.61 0 1 1-33.22 0zM1448.84 476.39h-125.56c4 28.47 26.28 46.36 55.12 46.36 20.44 0 31.75-5.12 43.43-17.89 6.21-6.94 15.7-9.13 22.27-4.38 6.57 5.11 8 15 2.92 20.81-16.43 21.16-42 31.39-69.72 31.39-48.55 0-87.24-35.41-87.24-89.43s38.69-88.33 87.24-88.33 84.7 34.31 84.7 88.33a13.08 13.08 0 0 1-13.16 13.14zm-19.71-25.92c-4-28.47-24.45-45.62-51.83-45.62-28.11 0-50 17.15-54 45.62zM1530.6 404.12c10.22-20.44 34.67-29.2 53.29-29.2 42.34 0 65.7 27.74 65.7 75.55v83.59a16.61 16.61 0 1 1-33.22 0v-81.4c0-28.47-14.23-45.26-37.59-45.26-24.09 0-48.18 13.51-48.18 49.64v77a16.61 16.61 0 1 1-33.22 0V393.53a16.61 16.61 0 1 1 33.22 0zM1752.15 523.47c17.15 0 29.93-9.12 29.93-22.63 0-12.41-9.86-18.61-22.63-21.53l-23.36-5.48c-28.84-7.66-46-21.9-46-48.91 0-28.1 25.18-50 59.49-50 22.27 0 43.8 8 53.66 27.74a15.66 15.66 0 0 1 1.83 7.66c0 10.95-10.59 15-15.7 15-4.75 0-8.4-2.56-12-7.3-7.67-10.22-16.43-14.24-27-14.24-16.06 0-26.64 9.49-26.64 22.27 0 11 10.58 17.15 21.53 19.71l25.19 6.2c35.4 8.76 44.17 30.3 44.17 49.64 0 31.76-30.67 51.11-66.07 51.11-26.28 0-53.29-14.6-61.32-40.89a28.12 28.12 0 0 1-.73-5.11c0-8.76 8.39-13.14 16.06-13.14 5.84 0 11.68 2.92 14.23 9.5 4.7 12.38 18.21 20.4 35.36 20.4zM1915.3 452.66l68.26 70.81c5.84 6.94 5.84 17.16-.73 22.64-6.93 6.93-17.15 5.84-23.36 0L1885 465.8v68.26a16.61 16.61 0 1 1-33.22 0V300.82a16.61 16.61 0 1 1 33.22 0v137.24l55.85-56.57a16.43 16.43 0 0 1 22.63-.37 16.63 16.63 0 0 1 0 23.36zM1997.43 463.25c0-54 40.51-88.33 89.06-88.33s89.42 34.31 89.42 88.33-40.88 89.43-89.42 89.43-89.06-35.41-89.06-89.43zm145.27 0c0-34.31-25.55-55.85-56.21-55.85s-56.21 21.54-56.21 55.85c0 34.67 25.55 57.3 56.21 57.3s56.21-22.63 56.21-57.3zM2244.9 534.06a16.61 16.61 0 1 1-33.22 0V300.82a16.61 16.61 0 1 1 33.22 0zM2331.4 534.06a16.61 16.61 0 1 1-33.22 0V300.82a16.61 16.61 0 1 1 33.22 0zM2526 476.39h-125.62c4 28.47 26.29 46.36 55.12 46.36 20.44 0 31.76-5.12 43.44-17.89 6.2-6.94 15.69-9.13 22.26-4.38 6.57 5.11 8 15 2.92 20.81-16.42 21.16-42 31.39-69.71 31.39-48.55 0-87.24-35.41-87.24-89.43s38.69-88.33 87.24-88.33 84.68 34.31 84.68 88.33a13.09 13.09 0 0 1-13.09 13.14zm-19.71-25.92c-4-28.47-24.46-45.62-51.83-45.62-28.11 0-50 17.15-54 45.62zM2611.35 404.12c10.22-20.44 34.68-29.2 53.29-29.2 42.34 0 65.7 27.74 65.7 75.55v83.59a16.61 16.61 0 1 1-33.21 0v-81.4c0-28.47-14.24-45.26-37.6-45.26-24.09 0-48.18 13.51-48.18 49.64v77a16.61 16.61 0 1 1-33.21 0V393.53a16.61 16.61 0 1 1 33.21 0zM2794.21 507.05c13.15 0 24.1 9.86 24.1 23s-10.95 22.64-24.1 22.64c-12.77 0-23.72-9.49-23.72-22.64s10.95-23 23.72-23zM2922.33 523.47c17.15 0 29.93-9.12 29.93-22.63 0-12.41-9.86-18.61-22.63-21.53l-23.36-5.48c-28.84-7.66-46-21.9-46-48.91 0-28.1 25.18-50 59.49-50 22.27 0 43.8 8 53.66 27.74a15.64 15.64 0 0 1 1.82 7.66c0 10.95-10.58 15-15.69 15-4.75 0-8.4-2.56-12-7.3-7.66-10.22-16.42-14.24-27-14.24-16.06 0-26.64 9.49-26.64 22.27 0 11 10.58 17.15 21.53 19.71l25.19 6.2c35.4 8.76 44.16 30.3 44.16 49.64 0 31.76-30.66 51.11-66.06 51.11-26.28 0-53.29-14.6-61.32-40.89a28.12 28.12 0 0 1-.73-5.11c0-8.76 8.39-13.14 16.06-13.14 5.84 0 11.68 2.92 14.23 9.5 4.7 12.38 18.2 20.4 35.36 20.4zM3166.88 476.39h-125.56c4 28.47 26.28 46.36 55.11 46.36 20.44 0 31.76-5.12 43.44-17.89 6.2-6.94 15.69-9.13 22.26-4.38 6.57 5.11 8 15 2.92 20.81-16.42 21.16-42 31.39-69.71 31.39-48.55 0-87.24-35.41-87.24-89.43s38.69-88.33 87.24-88.33 84.66 34.31 84.66 88.33a13.09 13.09 0 0 1-13.12 13.14zm-19.71-25.92c-4-28.47-24.46-45.62-51.83-45.62-28.11 0-50 17.15-54 45.62z"/><path d="M370.21 508.67a76.24 76.24 0 0 1-18.74-2.34c-24.94-6.32-44.4-24.55-50.8-47.59-4.08-14.69-6.17-44.13 25.66-76.26 14.84-15 16.13-30.06 4.06-47.43-21.39-30.71-24.08-65.05-7.13-89.65 15.31-22.2 43.7-31.29 74.1-23.72 2.73.68 5.43 1.54 8.28 2.44 8.39 2.65 17.06 5.4 25.89 3.51 10.68-2.27 21.28-11.62 31.49-27.79 21.89-34.65 55.43-37.92 77.33-26.29a51.17 51.17 0 0 1 24.72 29.37c4.42 13.49 3.34 28.41-3.13 43.15-3.69 8.43-2.92 17.94 1.87 23.14 5.36 5.82 14.65 4.22 21.5 1.86 19.89-6.85 39.37-3.72 53.43 8.58a53.18 53.18 0 0 1 16.82 49.75c-3.46 17.2-15.39 30.38-32.71 36.16-8.78 2.92-19.83 8-22.68 15.77-2.56 6.94 1.74 15.72 4.53 20.34 15.67 25.95 12.47 57.06-7.8 75.66-18.9 17.32-54.33 24.67-97.27-6.52-21.95-16-47.37-11.81-69.75 11.39-16.58 17.19-37.96 26.47-59.67 26.47zM376.46 251c-11.62 0-21.22 4.36-26.86 12.54-9.19 13.34-6.49 33.73 7.06 53.22 20.91 30.07 18.14 62.22-7.6 88.2-15.16 15.32-21.4 31.36-17.56 45.19 3.34 12 14 21.62 27.83 25.13 16.72 4.23 34-1.35 47.52-15.32 17-17.69 36.81-28.16 57.13-30.3 19.16-2 38 3.26 54.47 15.24 27.32 19.87 47.26 17.59 56.81 8.82 9-8.3 9.87-22.58 2-35.53-9.95-16.47-12.49-33.5-7.17-47.94 5.81-15.8 20.14-27.6 42.59-35.08 6.41-2.14 10.27-6.21 11.46-12.11a21.27 21.27 0 0 0-6.51-19.35c-6.76-5.92-15.67-4.58-21.95-2.41-22.11 7.62-42.32 3.81-55.45-10.43-13.35-14.48-16.42-37.66-7.64-57.68 7.22-16.48.58-27.22-7.3-31.41-14.21-7.54-27.88 3.43-35.27 15.12-35.47 56.26-75.02 43.74-94.02 37.73-2.37-.75-4.6-1.46-6.36-1.89a54.33 54.33 0 0 0-13.18-1.74zM264.57 279.61h-.85a16 16 0 0 1-15.14-16.81 105.63 105.63 0 0 1 69.61-94 16 16 0 0 1 10.91 30.1 73.7 73.7 0 0 0-48.57 65.54 16 16 0 0 1-15.96 15.17zM603.51 548.34a16 16 0 0 1-6.24-30.74 73.69 73.69 0 0 0 45.07-68 16 16 0 0 1 32 0 105.64 105.64 0 0 1-64.6 97.47 16 16 0 0 1-6.23 1.27z"/></g></g></svg>